<?xml version="1.0" encoding="UTF-8"?>
<svg version="1.1" xmlns="http://www.w3.org/2000/svg" width="50" height="50">
<path d="M0 0 C4.269375 -0.185625 8.53875 -0.37125 12.9375 -0.5625 C14.92898071 -0.68540405 14.92898071 -0.68540405 16.96069336 -0.81079102 C23.47276735 -0.94710046 27.45037296 -0.452645 32.34375 4.0625 C34.77614055 6.92100276 36.49640161 9.16276842 36.87890625 12.94140625 C36.77449219 14.13636719 36.67007813 15.33132812 36.5625 16.5625 C36.48128906 17.78066406 36.40007813 18.99882812 36.31640625 20.25390625 C36.21199219 21.16011719 36.10757813 22.06632812 36 23 C35.34 23 34.68 23 34 23 C34 19.37 34 15.74 34 12 C30.7 12 27.4 12 24 12 C24 8.7 24 5.4 24 2 C16.74 2 9.48 2 2 2 C2 15.86 2 29.72 2 44 C8.93 44 15.86 44 23 44 C23 44.66 23 45.32 23 46 C15.41 46 7.82 46 0 46 C0 30.82 0 15.64 0 0 Z M26 5 C26 6.65 26 8.3 26 10 C27.65 10 29.3 10 31 10 C29.35 8.35 27.7 6.7 26 5 Z " fill="#FFFC20" transform="translate(7,2)"/>
<path d="M0 0 C1.32 0 2.64 0 4 0 C4 0.66 4 1.32 4 2 C6.89234315 2.82638376 8.88742431 3 12 3 C12 4.32 12 5.64 12 7 C12.05800781 7.86496094 12.11601563 8.72992188 12.17578125 9.62109375 C12.39992532 14.23846155 12.5085881 17.13540023 10.125 21.1875 C5.69498559 23.75690836 1.9981415 23.98324095 -3 23 C-6.125 21.125 -6.125 21.125 -8 18 C-8.61869123 14.54982096 -8.6567002 11.44622316 -8 8 C-6 5.375 -6 5.375 -4 4 C-7.63 3.67 -11.26 3.34 -15 3 C-15 2.34 -15 1.68 -15 1 C-10.71 1 -6.42 1 -2 1 C-2 1.66 -2 2.32 -2 3 C-1.34 2.67 -0.68 2.34 0 2 C0 1.34 0 0.68 0 0 Z M-3.375 7.625 C-5.48706506 10.71186432 -5.61195145 12.3282913 -5 16 C-3.5 18.5 -3.5 18.5 -1 20 C2.6717087 20.61195145 4.28813568 20.48706506 7.375 18.375 C9.48706506 15.28813568 9.61195145 13.6717087 9 10 C7.5 7.5 7.5 7.5 5 6 C1.3282913 5.38804855 -0.28813568 5.51293494 -3.375 7.625 Z " fill="#FFFC1E" transform="translate(37,27)"/>
<path d="M0 0 C1.98 0 3.96 0 6 0 C6 1.98 6 3.96 6 6 C4.02 6 2.04 6 0 6 C0 4.02 0 2.04 0 0 Z M2 2 C2 2.66 2 3.32 2 4 C2.66 4 3.32 4 4 4 C4 3.34 4 2.68 4 2 C3.34 2 2.68 2 2 2 Z " fill="#FFFC20" transform="translate(14,34)"/>
<path d="M0 0 C1.98 0 3.96 0 6 0 C6 1.98 6 3.96 6 6 C4.02 6 2.04 6 0 6 C0 4.02 0 2.04 0 0 Z M2 2 C2 2.66 2 3.32 2 4 C2.66 4 3.32 4 4 4 C4 3.34 4 2.68 4 2 C3.34 2 2.68 2 2 2 Z " fill="#FFFC20" transform="translate(14,26)"/>
<path d="M0 0 C1.98 0 3.96 0 6 0 C6 1.98 6 3.96 6 6 C4.02 6 2.04 6 0 6 C0 4.02 0 2.04 0 0 Z M2 2 C2 2.66 2 3.32 2 4 C2.66 4 3.32 4 4 4 C4 3.34 4 2.68 4 2 C3.34 2 2.68 2 2 2 Z " fill="#FFFC20" transform="translate(14,18)"/>
<path d="M0 0 C0.66 0 1.32 0 2 0 C2 2.64 2 5.28 2 8 C0.35 8.66 -1.3 9.32 -3 10 C-3.33 9.01 -3.66 8.02 -4 7 C-3.01 6.34 -2.02 5.68 -1 5 C-0.27034634 2.43717258 -0.27034634 2.43717258 0 0 Z " fill="#FFFC1F" transform="translate(38,34)"/>
<path d="M0 0 C4.62 0 9.24 0 14 0 C14 0.66 14 1.32 14 2 C9.38 2 4.76 2 0 2 C0 1.34 0 0.68 0 0 Z " fill="#FFFC20" transform="translate(22,20)"/>
<path d="M0 0 C1.98 0 3.96 0 6 0 C6 0.66 6 1.32 6 2 C4.02 2 2.04 2 0 2 C0 1.34 0 0.68 0 0 Z " fill="#FFFB20" transform="translate(22,36)"/>
</svg>
