<?xml version="1.0" encoding="UTF-8"?>
<svg version="1.1" xmlns="http://www.w3.org/2000/svg" width="64" height="64">
<path d="M0 0 C1.53112246 1.53112246 1.15695317 2.93847431 1.19287109 5.07324219 C1.20893402 5.93794128 1.22499695 6.80264038 1.24154663 7.69354248 C1.28590344 11.66222486 1.32708068 15.63073703 1.35009766 19.59960938 C1.36664351 21.69282154 1.39391532 23.78597752 1.43212891 25.87890625 C1.48691423 28.89352802 1.50877633 31.90682233 1.5234375 34.921875 C1.54610687 35.85537781 1.56877625 36.78888062 1.59213257 37.75067139 C1.57720488 42.34576103 1.50496345 44.34376539 -1.37646484 48.08837891 C-5.0029154 50.73076751 -7.26220834 50.72874876 -11.6171875 50.46875 C-14 50 -14 50 -17.125 48.125 C-19.7769173 43.70513784 -19.98876625 40.02622846 -19 35 C-17.125 31.875 -17.125 31.875 -14 30 C-10.55198033 29.60518859 -7.49248182 29.76716788 -4 30 C-3.67 25.71 -3.34 21.42 -3 17 C-4.5675 17.4125 -6.135 17.825 -7.75 18.25 C-13.63603428 19.72150857 -19.55358847 20.98444389 -25.5 22.1875 C-26.37237305 22.36635742 -27.24474609 22.54521484 -28.14355469 22.72949219 C-28.97274414 22.89481445 -29.80193359 23.06013672 -30.65625 23.23046875 C-31.39681641 23.37895264 -32.13738281 23.52743652 -32.90039062 23.68041992 C-35 24 -35 24 -39 24 C-38.97381592 24.85231201 -38.94763184 25.70462402 -38.9206543 26.58276367 C-38.83518508 29.76027127 -38.77263211 32.9371911 -38.7253418 36.11547852 C-38.70027383 37.48807102 -38.66620918 38.86053102 -38.62280273 40.23266602 C-38.56182469 42.21050696 -38.53638991 44.18934184 -38.51171875 46.16796875 C-38.48553467 47.35672607 -38.45935059 48.5454834 -38.43237305 49.77026367 C-39.16476955 53.93752102 -40.75216181 55.38451636 -44 58 C-47.43489266 58.91239336 -50.52514651 58.68357774 -54 58 C-57.125 56.125 -57.125 56.125 -59 53 C-59.98876625 47.97377154 -59.7769173 44.29486216 -57.125 39.875 C-53.76003992 37.85602395 -52.59729868 37.79030979 -48.8046875 37.8828125 C-47.90476074 37.89973145 -47.00483398 37.91665039 -46.07763672 37.93408203 C-45.04920654 37.96671143 -45.04920654 37.96671143 -44 38 C-43.98541748 37.10692139 -43.97083496 36.21384277 -43.95581055 35.29370117 C-43.89472923 31.97782722 -43.82057522 28.66278101 -43.73754883 25.34741211 C-43.70430999 23.91295372 -43.67627465 22.47836487 -43.65356445 21.04370117 C-43.61999729 18.98039193 -43.56768587 16.91827697 -43.51171875 14.85546875 C-43.48553467 13.61434326 -43.45935059 12.37321777 -43.43237305 11.09448242 C-43 8 -43 8 -41.93798828 6.18994141 C-38.98888263 4.37916527 -35.82891194 3.78472145 -32.48046875 3.10546875 C-31.74427811 2.94959793 -31.00808746 2.79372711 -30.24958801 2.63313293 C-28.69322292 2.30735288 -27.13561238 1.98747456 -25.5769043 1.6730957 C-23.2022487 1.19049736 -20.83493108 0.67954239 -18.46679688 0.16601562 C-16.95088049 -0.147577 -15.43461372 -0.4594815 -13.91796875 -0.76953125 C-13.21463913 -0.92355911 -12.51130951 -1.07758698 -11.78666687 -1.23628235 C-7.2493627 -2.12005684 -4.22621069 -1.87541364 0 0 Z M-12.75 4.01171875 C-13.40452148 4.14060989 -14.05904297 4.26950104 -14.73339844 4.40229797 C-16.11646721 4.67801928 -17.49829774 4.96001528 -18.87890625 5.24780273 C-20.989002 5.68522014 -23.10298827 6.09684166 -25.21875 6.50585938 C-26.56281103 6.77710917 -27.90657283 7.04984682 -29.25 7.32421875 C-30.47203125 7.57260498 -31.6940625 7.82099121 -32.953125 8.0769043 C-35.93735864 8.98102188 -37.27996392 9.43420245 -39 12 C-39.2503577 15.62535976 -39.2503577 15.62535976 -39 19 C-30.69724667 17.68325559 -22.47254693 16.12102231 -14.25 14.375 C-13.15945312 14.14554688 -12.06890625 13.91609375 -10.9453125 13.6796875 C-8.29639595 13.12202086 -5.6479784 12.56210119 -3 12 C-2.74984127 8.58357241 -2.74984127 8.58357241 -3 5 C-6.90718537 2.39520976 -8.21975414 3.11182221 -12.75 4.01171875 Z M-14 37 C-14.33333333 40 -14.33333333 40 -14 43 C-12.11499729 45.31563087 -12.11499729 45.31563087 -9 45.25 C-5.88500271 45.31563087 -5.88500271 45.31563087 -4 43 C-3.66666667 40 -3.66666667 40 -4 37 C-5.88500271 34.68436913 -5.88500271 34.68436913 -9 34.75 C-12.11499729 34.68436913 -12.11499729 34.68436913 -14 37 Z M-54 45 C-54.33333333 48 -54.33333333 48 -54 51 C-52.11499729 53.31563087 -52.11499729 53.31563087 -49 53.25 C-45.88500271 53.31563087 -45.88500271 53.31563087 -44 51 C-43.66666667 48 -43.66666667 48 -44 45 C-45.88500271 42.68436913 -45.88500271 42.68436913 -49 42.75 C-52.11499729 42.68436913 -52.11499729 42.68436913 -54 45 Z " fill="#C4AB0F" transform="translate(61,4)"/>
</svg>
