<?xml version="1.0" encoding="UTF-8"?>
<svg version="1.1" xmlns="http://www.w3.org/2000/svg" width="367" height="82">
<path d="M0 0 C1.75183594 0.00386719 1.75183594 0.00386719 3.5390625 0.0078125 C4.70179687 0.00523438 5.86453125 0.00265625 7.0625 0 C10.1640625 0.1328125 10.1640625 0.1328125 13.1640625 1.1328125 C13.8240625 0.8028125 14.4840625 0.4728125 15.1640625 0.1328125 C20.94957782 -0.42707608 20.94957782 -0.42707608 23.1640625 0.1328125 C25.56771202 2.24752157 26.97320975 3.9140856 27.47802734 7.13769531 C27.55748567 9.42022444 27.51351153 11.66372223 27.4140625 13.9453125 C27.39601563 14.73357422 27.37796875 15.52183594 27.359375 16.33398438 C27.31250298 18.26745511 27.2407666 20.20029535 27.1640625 22.1328125 C25.5140625 21.8028125 23.8640625 21.4728125 22.1640625 21.1328125 C21.8340625 16.1828125 21.5040625 11.2328125 21.1640625 6.1328125 C17.52786594 5.05196729 17.52786594 5.05196729 15.1640625 5.1328125 C14.8340625 10.4128125 14.5040625 15.6928125 14.1640625 21.1328125 C12.8440625 21.4628125 11.5240625 21.7928125 10.1640625 22.1328125 C8.16789696 20.13664696 8.75422823 16.31579287 8.6015625 13.5703125 C8.55837891 12.85939453 8.51519531 12.14847656 8.47070312 11.41601562 C8.36434473 9.65519338 8.26367404 7.8940293 8.1640625 6.1328125 C6.50791593 5.75062483 4.83949226 5.41886148 3.1640625 5.1328125 C1.16789696 7.12897804 1.75422823 10.94983213 1.6015625 13.6953125 C1.55837891 14.40623047 1.51519531 15.11714844 1.47070312 15.84960938 C1.36434473 17.61043162 1.26367404 19.3715957 1.1640625 21.1328125 C-0.4859375 21.4628125 -2.1359375 21.7928125 -3.8359375 22.1328125 C-3.86481564 18.65366309 -3.88269437 15.17454419 -3.8984375 11.6953125 C-3.90681641 10.70208984 -3.91519531 9.70886719 -3.92382812 8.68554688 C-3.92705078 7.74130859 -3.93027344 6.79707031 -3.93359375 5.82421875 C-3.93883057 4.94967041 -3.94406738 4.07512207 -3.94946289 3.17407227 C-3.77011385 -0.05073913 -3.27163639 0.15321713 0 0 Z " fill="#7E9C16" transform="translate(97.8359375,36.8671875)"/>
<path d="M0 0 C3.08954459 1.77484476 4.53214578 3.23442037 6.375 6.25 C7.24373563 10.07243678 7.1437504 13.24304504 6 17 C4 20 4 20 1 22 C-2.80666824 22.56541186 -6.51118574 22.74440713 -10 21 C-10.33 24.3 -10.66 27.6 -11 31 C-11.99 31.33 -12.98 31.66 -14 32 C-14.66 31.67 -15.32 31.34 -16 31 C-16.08736736 27.27098186 -16.14051482 23.54222835 -16.1875 19.8125 C-16.21263672 18.75740234 -16.23777344 17.70230469 -16.26367188 16.61523438 C-16.27333984 15.59365234 -16.28300781 14.57207031 -16.29296875 13.51953125 C-16.31653442 12.11344604 -16.31653442 12.11344604 -16.34057617 10.67895508 C-15.83690241 6.71708252 -14.00189768 4.11750126 -11.375 1.1875 C-7.64245373 -0.67877314 -4.08422735 -0.65639368 0 0 Z M-9.25 5.625 C-11.21985834 7.92308586 -11.21985834 7.92308586 -11.5 11 C-11.21376982 14.06575838 -11.21376982 14.06575838 -9.3125 16.375 C-7.11424686 18.15192257 -7.11424686 18.15192257 -4.5 18.5 C-1.89036995 18.14061929 -1.89036995 18.14061929 0.375 16.4375 C2.32935324 13.99422187 2.32935324 13.99422187 2 10.4375 C1.28410124 7.01114265 1.28410124 7.01114265 -0.8125 5.0625 C-4.15522648 3.43889 -6.2336474 3.44652312 -9.25 5.625 Z " fill="#8E3010" transform="translate(221,37)"/>
<path d="M0 0 C2.475 0.495 2.475 0.495 5 1 C5.08767555 4.37483413 5.14061628 7.74937215 5.1875 11.125 C5.21263672 12.07632813 5.23777344 13.02765625 5.26367188 14.0078125 C5.32001108 19.41637615 5.1888414 23.39946927 2 28 C-0.85639711 30.80295101 -2.96862006 31.45107698 -6.9375 31.5 C-10.59674123 31.36507223 -11.87477903 31.07922143 -15.0625 29.0625 C-17.59116612 25.06557614 -18.3083384 21.71072559 -18 17 C-16.75 14.125 -16.75 14.125 -15 12 C-14.56300781 11.46632813 -14.12601562 10.93265625 -13.67578125 10.3828125 C-11.48798831 8.57750084 -10.23776434 8.65773429 -7.4375 8.75 C-6.25994141 8.77320313 -6.25994141 8.77320313 -5.05859375 8.796875 C-3 9 -3 9 -1 10 C-0.67 6.7 -0.34 3.4 0 0 Z M-11.25 14.625 C-13.21985834 16.92308586 -13.21985834 16.92308586 -13.5 20 C-13.21376982 23.06575838 -13.21376982 23.06575838 -11.3125 25.375 C-9.11013384 27.14214642 -9.11013384 27.14214642 -6.5 27.5625 C-3.8000871 27.16818354 -3.8000871 27.16818354 -1.625 24.875 C0.25627982 22.09699206 0.25627982 22.09699206 0 18.875 C-1.14329714 15.58802073 -1.93023088 14.5787384 -5 13 C-8.92212225 12.60967296 -8.92212225 12.60967296 -11.25 14.625 Z " fill="#8E3010" transform="translate(340,28)"/>
<path d="M0 0 C2.475 0.495 2.475 0.495 5 1 C5.33 3.97 5.66 6.94 6 10 C6.66 9.67 7.32 9.34 8 9 C15.08958838 8.4188862 15.08958838 8.4188862 18.9375 10.875 C22.51749133 14.56347592 22.32882435 17.55321053 22.29296875 22.515625 C21.88537873 25.97198834 20.53723498 27.68663869 18 30 C14.28546768 31.85726616 10.04420575 31.58501089 6 31 C3.17575712 28.80977082 1.58491397 27.16982793 0 24 C-0.08471364 22.18658158 -0.10721083 20.37005839 -0.09765625 18.5546875 C-0.09443359 17.47832031 -0.09121094 16.40195312 -0.08789062 15.29296875 C-0.07951172 14.16503906 -0.07113281 13.03710938 -0.0625 11.875 C-0.05798828 10.73933594 -0.05347656 9.60367188 -0.04882812 8.43359375 C-0.03701615 5.62234362 -0.02054507 2.8111977 0 0 Z M6.75 14.625 C4.78014166 16.92308586 4.78014166 16.92308586 4.5 20 C4.78623018 23.06575838 4.78623018 23.06575838 6.6875 25.375 C8.88986616 27.14214642 8.88986616 27.14214642 11.5 27.5625 C14.1999129 27.16818354 14.1999129 27.16818354 16.375 24.875 C18.25627982 22.09699206 18.25627982 22.09699206 18 18.875 C16.85670286 15.58802073 16.06976912 14.5787384 13 13 C9.07787775 12.60967296 9.07787775 12.60967296 6.75 14.625 Z " fill="#8E3010" transform="translate(230,28)"/>
<path d="M0 0 C3.0625 2.5625 3.0625 2.5625 5 5 C4.67 5.66 4.34 6.32 4 7 C-0.875 6.125 -0.875 6.125 -2 5 C-7.78915885 4.48147272 -7.78915885 4.48147272 -12.9375 6.8125 C-15.63032062 9.66852187 -15.96164342 11.48218611 -16.25 15.375 C-15.98284578 19.2487362 -15.34494559 20.96025572 -13 24 C-9.29873141 26.46751239 -7.37776468 26.30721156 -3 26 C-0.79932579 25.06716704 -0.79932579 25.06716704 1 24 C1.99 24 2.98 24 4 24 C3.9375 26.3125 3.9375 26.3125 3 29 C-1.6183823 31.88648894 -5.40805753 32.54346883 -10.78515625 31.70703125 C-15.58186797 30.17580581 -18.82372421 26.89226975 -21.4375 22.6875 C-22.53170422 17.45963538 -22.63198679 12.82573962 -20.875 7.75 C-18.35043933 4.04731102 -15.46818294 0.83112283 -11.0859375 -0.64453125 C-7.29809041 -1.29002579 -3.70520404 -0.99552635 0 0 Z " fill="#8E3010" transform="translate(175,28)"/>
<path d="M0 0 C2.475 0.495 2.475 0.495 5 1 C5 3.97 5 6.94 5 10 C5.66 9.67 6.32 9.34 7 9 C15.84370258 8.57207891 15.84370258 8.57207891 19 11 C21.63831273 14.76901818 21.2261956 18.84409919 21.125 23.25 C21.11597656 23.99507812 21.10695313 24.74015625 21.09765625 25.5078125 C21.07418358 27.33868059 21.03831525 29.16938238 21 31 C19.35 30.67 17.7 30.34 16 30 C15.96261719 29.01257813 15.92523438 28.02515625 15.88671875 27.0078125 C15.82097656 25.72648437 15.75523438 24.44515625 15.6875 23.125 C15.62949219 21.84882812 15.57148437 20.57265625 15.51171875 19.2578125 C15.34285156 18.18273437 15.17398438 17.10765625 15 16 C12.23011924 13.68456793 12.23011924 13.68456793 9.375 14.3125 C7.06498035 14.7741514 7.06498035 14.7741514 6 16 C5.76472227 18.34987262 5.58613583 20.70556039 5.4375 23.0625 C5.35371094 24.35285156 5.26992188 25.64320312 5.18359375 26.97265625 C5.12300781 27.97167969 5.06242187 28.97070312 5 30 C3.35 30.33 1.7 30.66 0 31 C0 20.77 0 10.54 0 0 Z " fill="#7E9C16" transform="translate(27,28)"/>
<path d="M0 0 C14 0 14 0 18 2 C20.66146319 6.02195556 20.82302051 10.3362171 20 15 C17.89981679 17.80024429 16.33686003 19.42069399 13.125 20.8125 C10.07703324 21.08143824 7.05723104 21.0587929 4 21 C4 24.3 4 27.6 4 31 C2.68 31 1.36 31 0 31 C0 20.77 0 10.54 0 0 Z M4 4 C4 7.96 4 11.92 4 16 C9.617863 16.51329263 9.617863 16.51329263 14.5625 14.3125 C16.22547186 12.09109733 16.22547186 12.09109733 16 9.4375 C14.75829541 6.41084505 13.93044144 5.46522072 11 4 C7.33285151 3.74936268 7.33285151 3.74936268 4 4 Z " fill="#7E9C16" transform="translate(5,28)"/>
<path d="M0 0 C4.11401075 2.36336788 5.58042991 4.55832292 7 9 C7.1953125 12.11328125 7.1953125 12.11328125 7.125 15.3125 C7.10695313 16.38113281 7.08890625 17.44976562 7.0703125 18.55078125 C7.04710938 19.35902344 7.02390625 20.16726562 7 21 C4.23735711 21.59732819 1.83967231 22 -1 22 C-1.68835938 22.05800781 -2.37671875 22.11601563 -3.0859375 22.17578125 C-7.26744171 22.42552979 -9.39812727 22.38870947 -13 20.0625 C-15.60868669 16.06794851 -16.30204315 12.74639235 -16 8 C-12.90170997 0.49887676 -7.65165705 -1.2297306 0 0 Z M-8.6875 5.625 C-11.25307173 7.82146475 -11.25307173 7.82146475 -11.5625 11 C-10.87637987 14.65930734 -10.03247414 15.86907223 -7 18 C-3.67625617 18.66474877 -2.45997394 18.30261443 0.375 16.4375 C2.32935324 13.99422187 2.32935324 13.99422187 2 10.4375 C1.28941318 6.9972852 1.28941318 6.9972852 -0.875 5.0625 C-4.17845921 3.41077039 -5.55059123 3.72826447 -8.6875 5.625 Z " fill="#7F9C16" transform="translate(66,37)"/>
<path d="M0 0 C3.57052209 1.93341549 5.69451966 4.08355899 7 8 C7.06937062 10.22818441 7.08457084 12.45834524 7.0625 14.6875 C7.05347656 15.86699219 7.04445312 17.04648437 7.03515625 18.26171875 C7.02355469 19.16535156 7.01195312 20.06898437 7 21 C3.25 22.125 3.25 22.125 1 21 C0.34 21.33 -0.32 21.66 -1 22 C-5.71167386 22.64797087 -8.97763536 22.68157643 -13 20 C-15.47596569 16.28605147 -16.30529333 13.44855994 -16 9 C-13.11150972 0.94263237 -8.28390664 -1.56219001 0 0 Z M-8.8125 6.125 C-11.31537595 8.81239636 -11.31537595 8.81239636 -11 12.125 C-9.83814815 15.76308946 -9.83814815 15.76308946 -7 18 C-3.42243314 18.00082535 -3.42243314 18.00082535 0 17 C2.32749345 13.50875983 2.50299316 12.10777749 2 8 C0.37419918 5.54047777 0.37419918 5.54047777 -2 4 C-6.05559214 3.59811127 -6.05559214 3.59811127 -8.8125 6.125 Z " fill="#7E9D16" transform="translate(143,37)"/>
<path d="M0 0 C3 2.4375 3 2.4375 5 5 C5.33 5.33 5.66 5.66 6 6 C6.07319621 8.69654854 6.09242537 11.36691458 6.0625 14.0625 C6.05798828 14.82111328 6.05347656 15.57972656 6.04882812 16.36132812 C6.0370068 18.24091871 6.01907078 20.12046899 6 22 C5.21625 21.814375 4.4325 21.62875 3.625 21.4375 C1.02910225 20.74037734 1.02910225 20.74037734 -1 22 C-4.05920574 22.42071592 -6.9467746 22.48514117 -10 22 C-12.75569447 19.81840855 -14.43588747 18.12822506 -16 15 C-16.68128376 8.18716238 -16.68128376 8.18716238 -14.953125 5.17578125 C-10.58968208 -0.12451853 -6.64691021 -1.06763843 0 0 Z M-9.25 5.5625 C-11.6502204 8.90566413 -11.58527499 10.97623447 -11 15 C-8.93174529 17.37466282 -7.56571765 17.88685647 -4.5 18.5 C-1.79583333 18.17916667 -1.79583333 18.17916667 0.375 15.875 C2.25627982 13.09699206 2.25627982 13.09699206 2 9.875 C0.85670286 6.58802073 0.06976912 5.5787384 -3 4 C-6.90897434 3.61973613 -6.90897434 3.61973613 -9.25 5.5625 Z " fill="#8E3010" transform="translate(295,37)"/>
<path d="M0 0 C2.89728868 1.2328888 4.39683427 2.2245012 6.3125 4.6875 C7.34579439 8.16312659 7.57384972 11.44076542 7 15 C4 20.5 4 20.5 1 22 C-3.91996928 22.53118252 -7.77327597 22.75105553 -12.0625 20.125 C-15.47509989 16.38214851 -15.32843064 13.39230075 -15.29296875 8.484375 C-14.88537873 5.02801166 -13.53723498 3.31336131 -11 1 C-7.5507568 -0.7246216 -3.77868569 -0.36610104 0 0 Z M-8.8125 6.125 C-11.31537595 8.81239636 -11.31537595 8.81239636 -11 12.125 C-9.83814815 15.76308946 -9.83814815 15.76308946 -7 18 C-1.95434998 17.80862516 -1.95434998 17.80862516 2 15 C2.44088277 11.03205505 2.61611613 8.85816175 0.25 5.5625 C-3.41386526 3.01814912 -5.35899009 3.5156814 -8.8125 6.125 Z " fill="#8E3010" transform="translate(270,37)"/>
<path d="M0 0 C1.32 0 2.64 0 4 0 C5.52106634 3.04213267 5.37429338 6.28047572 5.5625 9.625 C5.60568359 10.33140625 5.64886719 11.0378125 5.69335938 11.765625 C5.79944751 13.51018537 5.90022889 15.25506697 6 17 C9.41656024 17.16677282 9.41656024 17.16677282 13 17 C15.85793316 14.14206684 15.40799941 11.85334416 15.625 7.875 C15.69976562 6.59367187 15.77453125 5.31234375 15.8515625 3.9921875 C15.90054688 3.00476562 15.94953125 2.01734375 16 1 C17.9375 0.4375 17.9375 0.4375 20 0 C21 1 21 1 21.11352539 2.94946289 C21.10828857 3.7821167 21.10305176 4.61477051 21.09765625 5.47265625 C21.09443359 6.37177734 21.09121094 7.27089844 21.08789062 8.19726562 C21.07951172 9.14279297 21.07113281 10.08832031 21.0625 11.0625 C21.05798828 12.01189453 21.05347656 12.96128906 21.04882812 13.93945312 C21.0370011 16.29303065 21.02052025 18.64648477 21 21 C17.48165257 21.77760577 14.10207615 22.24346351 10.5 22.375 C9.5821875 22.42398438 8.664375 22.47296875 7.71875 22.5234375 C3.71642725 21.75287536 2.36278367 20.28753562 0 17 C-0.5794932 14.02946432 -0.47659214 11.19922186 -0.3125 8.1875 C-0.28994141 7.39923828 -0.26738281 6.61097656 -0.24414062 5.79882812 C-0.18554161 3.86506071 -0.09586827 1.93227833 0 0 Z " fill="#8E3010" transform="translate(181,37)"/>
<path d="M0 0 C4.00535091 2.44771444 5.66804391 3.92602443 7.0625 8.4375 C6.99118687 12.50234831 6.20649268 14.61145766 4 18 C-0.02499843 20.68333228 -3.27142136 20.79639219 -8 20 C-11.70219508 17.45474088 -12.7681855 15.81135075 -14 11.5 C-14 6.67226887 -12.52272814 4.57711129 -9.25 1.1875 C-5.91812934 -0.57098729 -3.71653027 -0.51262487 0 0 Z M-10 6 C-7.36 6 -4.72 6 -2 6 C-1.67 7.65 -1.34 9.3 -1 11 C1.18490007 8.32357511 1.18490007 8.32357511 1 6 C1.66 5.67 2.32 5.34 3 5 C0.82182537 3.06384477 -0.60156374 2.06972634 -3.5 1.5625 C-6.74981221 2.13121714 -7.91107725 3.52423971 -10 6 Z M3 6 C3 7.65 3 9.3 3 11 C3.66 11 4.32 11 5 11 C4.67 9.35 4.34 7.7 4 6 C3.67 6 3.34 6 3 6 Z M-11 8 C-11.96624167 9.67828408 -11.96624167 9.67828408 -12 12 C-10.36572531 14.65569638 -9.40482818 16.18171528 -7 18 C-3.41408529 18.83383302 -3.41408529 18.83383302 0 18 C1.98239527 16.13875077 1.98239527 16.13875077 3 14 C2.34 13.34 1.68 12.68 1 12 C1 12.66 1 13.32 1 14 C0.01 14 -0.98 14 -2 14 C-2.33 13.01 -2.66 12.02 -3 11 C-3 11.99 -3 12.98 -3 14 C-3.66 14 -4.32 14 -5 14 C-4.67 12.02 -4.34 10.04 -4 8 C-4.66 8 -5.32 8 -6 8 C-6 9.98 -6 11.96 -6 14 C-6.66 14 -7.32 14 -8 14 C-8 12.02 -8 10.04 -8 8 C-8.99 8 -9.98 8 -11 8 Z " fill="#635E5D" transform="translate(356,9)"/>
<path d="M0 0 C1.66666667 0.33333333 3.33333333 0.66666667 5 1 C5.33 0.67 5.66 0.34 6 0 C8.67058851 -0.14115161 11.32432238 -0.04247107 14 0 C14.33 1.32 14.66 2.64 15 4 C13.72125 4.12375 12.4425 4.2475 11.125 4.375 C7.65209064 4.69042399 7.65209064 4.69042399 5 7 C4.69400937 9.56916657 4.48912913 12.04758384 4.375 14.625 C4.33632812 15.33140625 4.29765625 16.0378125 4.2578125 16.765625 C4.16352276 18.50998524 4.08067109 20.25495691 4 22 C2.35 21.67 0.7 21.34 -1 21 C-1.02888146 17.68751813 -1.04675799 14.37506833 -1.0625 11.0625 C-1.07087891 10.11697266 -1.07925781 9.17144531 -1.08789062 8.19726562 C-1.09111328 7.29814453 -1.09433594 6.39902344 -1.09765625 5.47265625 C-1.10289307 4.64000244 -1.10812988 3.80734863 -1.11352539 2.94946289 C-1 1 -1 1 0 0 Z " fill="#7E9C16" transform="translate(76,37)"/>
<path d="M0 0 C1.66666667 0.33333333 3.33333333 0.66666667 5 1 C5.33 0.67 5.66 0.34 6 0 C8.67058851 -0.14115161 11.32432238 -0.04247107 14 0 C14.33 1.32 14.66 2.64 15 4 C11.7 4.33 8.4 4.66 5 5 C4.67 10.61 4.34 16.22 4 22 C2.35 21.67 0.7 21.34 -1 21 C-1.02888146 17.68751813 -1.04675799 14.37506833 -1.0625 11.0625 C-1.07087891 10.11697266 -1.07925781 9.17144531 -1.08789062 8.19726562 C-1.09111328 7.29814453 -1.09433594 6.39902344 -1.09765625 5.47265625 C-1.10289307 4.64000244 -1.10812988 3.80734863 -1.11352539 2.94946289 C-1 1 -1 1 0 0 Z " fill="#8E3010" transform="translate(306,37)"/>
</svg>
