<?xml version="1.0" encoding="UTF-8"?>
<svg version="1.1" xmlns="http://www.w3.org/2000/svg" width="288" height="90">
<path d="M0 0 C0 0.99 0 1.98 0 3 C0.99 3.33 1.98 3.66 3 4 C3 4.66 3 5.32 3 6 C2.34 6.33 1.68 6.66 1 7 C0.34227572 10.02934491 0.34227572 10.02934491 0 13 C11.23080206 10.56329047 22.41291828 8.11799796 33.36694336 4.61254883 C37.94064295 3.18052226 42.25856963 2.520093 47 2 C48.1446875 1.6596875 48.1446875 1.6596875 49.3125 1.3125 C51 1 51 1 54 3 C54.27450355 6.08816495 54.1162366 8.56675448 53.3125 11.5625 C52.88728726 14.87915937 54.10414124 16.34579774 56 19 C58.97 18.67 61.94 18.34 65 18 C65 17.34 65 16.68 65 16 C67.10372401 15.66388432 69.20799657 15.33120054 71.3125 15 C73.07013672 14.7215625 73.07013672 14.7215625 74.86328125 14.4375 C78 14 78 14 81 14 C83.75 16.1875 83.75 16.1875 86 19 C85.9375 21.75 85.9375 21.75 85 24 C84.34 24.33 83.68 24.66 83 25 C83.33 26.32 83.66 27.64 84 29 C84.66 29 85.32 29 86 29 C86 29.66 86 30.32 86 31 C86.61875 31.12375 87.2375 31.2475 87.875 31.375 C90 32 90 32 92 34 C91.44444444 38.55555556 91.44444444 38.55555556 90 40 C90.74765625 40 91.4953125 40 92.265625 40 C112 40 112 40 121 43 C123.33212027 43.07522969 125.6685311 43.09325876 128 43 C128 44.65 128 46.3 128 48 C127.40832031 48.17015625 126.81664062 48.3403125 126.20703125 48.515625 C121.29265927 50.02280597 117.94807776 51.61593335 114 55 C112.125 55.6875 112.125 55.6875 110 56 C108.7625 56.185625 107.525 56.37125 106.25 56.5625 C105.1775 56.706875 104.105 56.85125 103 57 C103 57.66 103 58.32 103 59 C102.401875 59.144375 101.80375 59.28875 101.1875 59.4375 C99.43849596 59.8872439 97.71322977 60.42892341 96 61 C95.4225 60.608125 94.845 60.21625 94.25 59.8125 C92.06833273 58.73419906 92.06833273 58.73419906 90.2578125 59.75390625 C88.48807045 60.80767382 86.74299583 61.90255818 85 63 C84.34 63 83.68 63 83 63 C82.67 62.34 82.34 61.68 82 61 C81.01 61 80.02 61 79 61 C78.525625 61.495 78.05125 61.99 77.5625 62.5 C76 64 76 64 72 64 C71.01 63.67 70.02 63.34 69 63 C68.01 63.495 68.01 63.495 67 64 C65.00039988 64.039992 62.99952758 64.04346799 61 64 C61 64.66 61 65.32 61 66 C60.20335937 65.97679688 59.40671875 65.95359375 58.5859375 65.9296875 C52.88371375 65.83256933 48.39012943 65.97870146 43 68 C40.625 67.625 40.625 67.625 39 67 C39 67.66 39 68.32 39 69 C38.236875 68.95875 37.47375 68.9175 36.6875 68.875 C33.77281584 68.77919176 33.77281584 68.77919176 31 71 C27.3125 70.625 27.3125 70.625 24 70 C24 70.66 24 71.32 24 72 C22.37512529 72.16788373 20.75009558 72.33426787 19.125 72.5 C18.22007812 72.5928125 17.31515625 72.685625 16.3828125 72.78125 C14 73 14 73 12 73 C12 73.66 12 74.32 12 75 C10.68 74.67 9.36 74.34 8 74 C8 74.66 8 75.32 8 76 C5.36 76 2.72 76 0 76 C0.33 76.99 0.66 77.98 1 79 C0.319375 78.814375 -0.36125 78.62875 -1.0625 78.4375 C-4.5811582 77.91344452 -7.50459219 78.41743203 -11 79 C-11.99 79 -12.98 79 -14 79 C-14 79.66 -14 80.32 -14 81 C-14.721875 80.979375 -15.44375 80.95875 -16.1875 80.9375 C-18.91925138 80.99820559 -21.34256091 81.39258535 -24 82 C-24 82.66 -24 83.32 -24 84 C-24.83144531 84.06058594 -25.66289062 84.12117188 -26.51953125 84.18359375 C-28.14955078 84.30927734 -28.14955078 84.30927734 -29.8125 84.4375 C-30.89144531 84.51871094 -31.97039062 84.59992188 -33.08203125 84.68359375 C-36.05989905 84.90212461 -36.05989905 84.90212461 -39 86 C-39.66 85.67 -40.32 85.34 -41 85 C-41 85.66 -41 86.32 -41 87 C-45.47378703 89.30905137 -50.05482616 89.66065191 -55 89 C-55.66 88.34 -56.32 87.68 -57 87 C-58.32 87 -59.64 87 -61 87 C-63 82.25 -63 82.25 -63 80 C-63.31478446 78.66216607 -63.64587656 77.32796291 -64 76 C-63.34 76 -62.68 76 -62 76 C-62 75.01 -62 74.02 -62 73 C-62.66 73 -63.32 73 -64 73 C-64 72.34 -64 71.68 -64 71 C-63.01 71 -62.02 71 -61 71 C-64.12155879 69.99664182 -65.87400172 70.19329077 -69 71 C-70.485 70.505 -70.485 70.505 -72 70 C-72.495 71.98 -72.495 71.98 -73 74 C-73.66 74 -74.32 74 -75 74 C-75 73.34 -75 72.68 -75 72 C-76.65 72.33 -78.3 72.66 -80 73 C-80.495 74.485 -80.495 74.485 -81 76 C-81.969375 76.12375 -82.93875 76.2475 -83.9375 76.375 C-84.948125 76.58125 -85.95875 76.7875 -87 77 C-87.33 77.66 -87.66 78.32 -88 79 C-95.41176471 80.29411765 -95.41176471 80.29411765 -98 79 C-98 79.66 -98 80.32 -98 81 C-101.375 81.625 -101.375 81.625 -105 82 C-105.99 81.01 -105.99 81.01 -107 80 C-108.31747324 79.30251417 -109.64914193 78.63040043 -111 78 C-110.505 76.02 -110.505 76.02 -110 74 C-110.928125 74 -111.85625 74 -112.8125 74 C-115.875 74 -118.9375 74 -122 74 C-122.33 74.66 -122.66 75.32 -123 76 C-124.8125 77 -124.8125 77 -127 78 C-127.598125 78.391875 -128.19625 78.78375 -128.8125 79.1875 C-133.06579891 80.76729674 -137.74284868 79.19200237 -142 78 C-142.33 76.35 -142.66 74.7 -143 73 C-142.34 73 -141.68 73 -141 73 C-143.19870933 69.69337183 -143.19870933 69.69337183 -146 67 C-149.60272618 67.24076271 -149.60272618 67.24076271 -153 68 C-154.8125 66.5625 -154.8125 66.5625 -156 65 C-156.66 65 -157.32 65 -158 65 C-158 63.35 -158 61.7 -158 60 C-158.66 59.67 -159.32 59.34 -160 59 C-160.125 56.625 -160.125 56.625 -160 54 C-159.34 53.34 -158.68 52.68 -158 52 C-158.495 50.515 -158.495 50.515 -159 49 C-155.535 48.505 -155.535 48.505 -152 48 C-152 47.34 -152 46.68 -152 46 C-150.35546875 44.74609375 -150.35546875 44.74609375 -148.1875 43.4375 C-147.47980469 43.00308594 -146.77210938 42.56867187 -146.04296875 42.12109375 C-144 41 -144 41 -141 40 C-140.67 39.34 -140.34 38.68 -140 38 C-137.93359375 37.5859375 -137.93359375 37.5859375 -135.4375 37.375 C-134.61121094 37.30023438 -133.78492188 37.22546875 -132.93359375 37.1484375 C-132.29550781 37.09945312 -131.65742188 37.05046875 -131 37 C-130.67 36.01 -130.34 35.02 -130 34 C-126.8125 32.9375 -126.8125 32.9375 -123 32 C-119.72435637 31.07585059 -119.72435637 31.07585059 -117 30 C-116.67 29.34 -116.34 28.68 -116 28 C-114.28582479 27.24180712 -112.56818741 26.48970106 -110.828125 25.79296875 C-108.82255018 24.98324339 -108.82255018 24.98324339 -106.5 23.375 C-104 22 -104 22 -100.75 21.5625 C-96.65811546 20.94871732 -93.61231081 19.62660815 -89.91796875 17.83984375 C-88 17 -88 17 -86 17 C-85.67 16.34 -85.34 15.68 -85 15 C-83.00116131 14.65977214 -81.00109278 14.32670903 -79 14 C-78.34 13.34 -77.68 12.68 -77 12 C-74.93772324 11.27079717 -72.84958234 10.61357657 -70.75 10 C-66.47152872 8.73814672 -62.22476818 7.43212481 -58 6 C-57.01 5.67 -56.02 5.34 -55 5 C-54.154375 4.71125 -53.30875 4.4225 -52.4375 4.125 C-51.303125 3.75375 -50.16875 3.3825 -49 3 C-48.23042969 2.73703125 -47.46085937 2.4740625 -46.66796875 2.203125 C-34.78656408 -1.6660882 -34.78656408 -1.6660882 -28.94921875 0.90234375 C-27.25338779 1.85731068 -25.61935981 2.92042679 -24 4 C-23.67 3.34 -23.34 2.68 -23 2 C-21.906875 2.04125 -20.81375 2.0825 -19.6875 2.125 C-15.91107771 2.32074666 -15.91107771 2.32074666 -13 0 C-8.78731291 -1.13856408 -4.01213342 -2.00606671 0 0 Z M52 17 C53 20 53 20 53 20 Z M82 31 C81.67 31.66 81.34 32.32 81 33 C81.99 32.67 82.98 32.34 84 32 C83.34 31.67 82.68 31.34 82 31 Z M84 33 C84 33.33 84 33.66 84 34 C85.65 34 87.3 34 89 34 C89 33.67 89 33.34 89 33 C87.35 33 85.7 33 84 33 Z M83 35 C84 37 84 37 84 37 Z M79 37 C80.485 37.99 80.485 37.99 82 39 C82 38.34 82 37.68 82 37 C81.01 37 80.02 37 79 37 Z M65 41 C64.67 41.66 64.34 42.32 64 43 C64.66 43 65.32 43 66 43 C65.67 42.34 65.34 41.68 65 41 Z M62 42 C62 42.66 62 43.32 62 44 C62.66 43.67 63.32 43.34 64 43 C63.34 42.67 62.68 42.34 62 42 Z M111 52 C112 54 112 54 112 54 Z M-141 73 C-140 75 -140 75 -140 75 Z " fill="#FABA2D" transform="translate(160,1)"/>
<path d="M0 0 C5.67507225 2.00296668 9.30675089 5.61350179 12 11 C12.14856188 15.53113746 12.10529324 19.57882704 11 24 C11.99 24 12.98 24 14 24 C14 25.32 14 26.64 14 28 C15.65 28 17.3 28 19 28 C18.67 28.66 18.34 29.32 18 30 C17.21625 29.95875 16.4325 29.9175 15.625 29.875 C12.83883881 29.71271266 12.83883881 29.71271266 11 32 C10.66666667 34.5 10.66666667 34.5 11 37 C12.81082504 39.24366663 12.81082504 39.24366663 15.375 39.1875 C17.71878304 39.02008693 19.75372262 38.66556367 22 38 C22 36.02 22 34.04 22 32 C25 31 25 31 28.4375 31.0625 C31.76400349 31.00414029 33.26464408 30.75062779 36 29 C36.495 29.99 36.495 29.99 37 31 C38.98 31 40.96 31 43 31 C43 24.73 43 18.46 43 12 C43.99 12 44.98 12 46 12 C46 18.6 46 25.2 46 32 C48.97 32 51.94 32 55 32 C55 25.4 55 18.8 55 12 C55.66 12 56.32 12 57 12 C57 13.98 57 15.96 57 18 C59.64 18 62.28 18 65 18 C64.043419 19.77178053 63.08467012 21.54239076 62.125 23.3125 C61.59132813 24.29863281 61.05765625 25.28476562 60.5078125 26.30078125 C59 29 59 29 57 32 C63.6 32 70.2 32 77 32 C77 30.02 77 28.04 77 26 C74.36 26 71.72 26 69 26 C70.44575267 22.6265771 72.2049086 20.38404854 75 18 C77.1328125 17.38671875 77.1328125 17.38671875 79 17 C79.01417969 17.59167969 79.02835938 18.18335937 79.04296875 18.79296875 C79.29529749 22.97344217 79.67064619 25.49567698 82 29.0625 C86.08194633 31.698757 89.26646071 31.79894583 94 31 C97.63467079 29.37599816 98.77408696 28.33886956 101 25 C101.44703234 22.78415454 101.81463242 20.55158039 102.125 18.3125 C102.37636719 16.54326172 102.37636719 16.54326172 102.6328125 14.73828125 C102.75398437 13.83464844 102.87515625 12.93101563 103 12 C103.33 12 103.66 12 104 12 C104.04898438 13.12019531 104.09796875 14.24039063 104.1484375 15.39453125 C104.22347856 16.86721203 104.29902582 18.33986707 104.375 19.8125 C104.42140625 20.91948242 104.42140625 20.91948242 104.46875 22.04882812 C104.67346148 25.81893115 104.86433827 27.79650741 107 31 C111.23998354 31.39259107 114.36733941 31.32490278 118 29 C118.99 29.99 118.99 29.99 120 31 C121.98 31.33 123.96 31.66 126 32 C126 25.4 126 18.8 126 12 C129 14 129 14 129.8125 17.375 C131.27598299 21.84247439 133.04758945 22.68010685 137 25 C137 25.66 137 26.32 137 27 C134.69 26.67 132.38 26.34 130 26 C130.33 27.65 130.66 29.3 131 31 C136.15589637 31.09010304 140.94216483 31.10640144 146 30 C146.66 30.33 147.32 30.66 148 31 C150.65756465 31.43225449 153.32332885 31.69779519 156 32 C156 27.38 156 22.76 156 18 C156.99 17.67 157.98 17.34 159 17 C159.01417969 17.59167969 159.02835938 18.18335937 159.04296875 18.79296875 C159.2928095 22.93222228 159.68558376 25.50301949 161.9375 29.0625 C166.20172722 31.7602764 170.06703346 31.79429122 175 31 C175.99 30.34 176.98 29.68 178 29 C178 28.34 178 27.68 178 27 C174.7 27 171.4 27 168 27 C167.67 25.68 167.34 24.36 167 23 C170.96 23 174.92 23 179 23 C178.67 20.69 178.34 18.38 178 16 C180.77544641 15.24818607 183.45257477 14.78446858 186.3125 14.5 C189.22645211 14.20138011 192.10812816 13.84008454 195 13.375 C195.99 13.25125 196.98 13.1275 198 13 C198.33 13.33 198.66 13.66 199 14 C200.55836106 14.1848903 202.12240167 14.32286649 203.6875 14.4375 C207.75469222 14.79569022 211.12593891 15.7086463 215 17 C217.33212027 17.07522969 219.6685311 17.09325876 222 17 C222 18.65 222 20.3 222 22 C221.40832031 22.17015625 220.81664062 22.3403125 220.20703125 22.515625 C215.29265927 24.02280597 211.94807776 25.61593335 208 29 C206.125 29.6875 206.125 29.6875 204 30 C202.7625 30.185625 201.525 30.37125 200.25 30.5625 C199.1775 30.706875 198.105 30.85125 197 31 C197 31.66 197 32.32 197 33 C196.401875 33.144375 195.80375 33.28875 195.1875 33.4375 C193.43849596 33.8872439 191.71322977 34.42892341 190 35 C189.4225 34.608125 188.845 34.21625 188.25 33.8125 C186.06833273 32.73419906 186.06833273 32.73419906 184.2578125 33.75390625 C182.48807045 34.80767382 180.74299583 35.90255818 179 37 C178.34 37 177.68 37 177 37 C176.67 36.34 176.34 35.68 176 35 C175.01 35 174.02 35 173 35 C172.525625 35.495 172.05125 35.99 171.5625 36.5 C170 38 170 38 166 38 C165.01 37.67 164.02 37.34 163 37 C162.01 37.495 162.01 37.495 161 38 C159.00039988 38.039992 156.99952758 38.04346799 155 38 C155 38.66 155 39.32 155 40 C153.80503906 39.96519531 153.80503906 39.96519531 152.5859375 39.9296875 C146.88371375 39.83256933 142.39012943 39.97870146 137 42 C134.625 41.625 134.625 41.625 133 41 C133 41.66 133 42.32 133 43 C132.236875 42.95875 131.47375 42.9175 130.6875 42.875 C127.77281584 42.77919176 127.77281584 42.77919176 125 45 C121.3125 44.625 121.3125 44.625 118 44 C118 44.66 118 45.32 118 46 C116.37512529 46.16788373 114.75009558 46.33426787 113.125 46.5 C112.22007812 46.5928125 111.31515625 46.685625 110.3828125 46.78125 C108 47 108 47 106 47 C106 47.66 106 48.32 106 49 C104.68 48.67 103.36 48.34 102 48 C102 48.66 102 49.32 102 50 C99.36 50 96.72 50 94 50 C94.33 50.99 94.66 51.98 95 53 C94.319375 52.814375 93.63875 52.62875 92.9375 52.4375 C89.4188418 51.91344452 86.49540781 52.41743203 83 53 C82.01 53 81.02 53 80 53 C80 53.66 80 54.32 80 55 C78.9171875 54.9690625 78.9171875 54.9690625 77.8125 54.9375 C75.08074862 54.99820559 72.65743909 55.39258535 70 56 C70 56.66 70 57.32 70 58 C69.16855469 58.06058594 68.33710938 58.12117188 67.48046875 58.18359375 C66.39378906 58.26738281 65.30710938 58.35117188 64.1875 58.4375 C63.10855469 58.51871094 62.02960938 58.59992188 60.91796875 58.68359375 C57.94010095 58.90212461 57.94010095 58.90212461 55 60 C54.34 59.67 53.68 59.34 53 59 C53 59.66 53 60.32 53 61 C48.52621297 63.30905137 43.94517384 63.66065191 39 63 C38.34 62.34 37.68 61.68 37 61 C35.68 61 34.36 61 33 61 C31 56.25 31 56.25 31 54 C30.68521554 52.66216607 30.35412344 51.32796291 30 50 C30.66 50 31.32 50 32 50 C32 49.01 32 48.02 32 47 C31.34 47 30.68 47 30 47 C30 46.34 30 45.68 30 45 C30.99 45 31.98 45 33 45 C29.87844121 43.99664182 28.12599828 44.19329077 25 45 C23.515 44.505 23.515 44.505 22 44 C21.67 45.32 21.34 46.64 21 48 C20.34 48 19.68 48 19 48 C19 47.34 19 46.68 19 46 C17.35 46.33 15.7 46.66 14 47 C13.67 47.99 13.34 48.98 13 50 C12.030625 50.12375 11.06125 50.2475 10.0625 50.375 C9.051875 50.58125 8.04125 50.7875 7 51 C6.505 51.99 6.505 51.99 6 53 C-1.41176471 54.29411765 -1.41176471 54.29411765 -4 53 C-4 53.66 -4 54.32 -4 55 C-7.375 55.625 -7.375 55.625 -11 56 C-11.66 55.34 -12.32 54.68 -13 54 C-14.31747324 53.30251417 -15.64914193 52.63040043 -17 52 C-16.67 50.68 -16.34 49.36 -16 48 C-16.928125 48 -17.85625 48 -18.8125 48 C-21.875 48 -24.9375 48 -28 48 C-28.495 48.99 -28.495 48.99 -29 50 C-30.8125 51 -30.8125 51 -33 52 C-33.598125 52.391875 -34.19625 52.78375 -34.8125 53.1875 C-39.06579891 54.76729674 -43.74284868 53.19200237 -48 52 C-48.495 49.525 -48.495 49.525 -49 47 C-48.34 47 -47.68 47 -47 47 C-49.19870933 43.69337183 -49.19870933 43.69337183 -52 41 C-55.60272618 41.24076271 -55.60272618 41.24076271 -59 42 C-60.8125 40.5625 -60.8125 40.5625 -62 39 C-62.66 39 -63.32 39 -64 39 C-64 37.35 -64 35.7 -64 34 C-64.66 33.67 -65.32 33.34 -66 33 C-66.125 30.625 -66.125 30.625 -66 28 C-65.34 27.34 -64.68 26.68 -64 26 C-64.33 25.01 -64.66 24.02 -65 23 C-61.535 22.505 -61.535 22.505 -58 22 C-58 21.34 -58 20.68 -58 20 C-56.35546875 18.74609375 -56.35546875 18.74609375 -54.1875 17.4375 C-53.47980469 17.00308594 -52.77210937 16.56867187 -52.04296875 16.12109375 C-50 15 -50 15 -47 14 C-46.67 13.34 -46.34 12.68 -46 12 C-43.93359375 11.5859375 -43.93359375 11.5859375 -41.4375 11.375 C-40.19806641 11.26285156 -40.19806641 11.26285156 -38.93359375 11.1484375 C-37.97646484 11.07496094 -37.97646484 11.07496094 -37 11 C-36.67 10.01 -36.34 9.02 -36 8 C-32.8125 6.9375 -32.8125 6.9375 -29 6 C-25.72435637 5.07585059 -25.72435637 5.07585059 -23 4 C-22.67 3.34 -22.34 2.68 -22 2 C-20.68 2.33 -19.36 2.66 -18 3 C-18.66 4.134375 -19.32 5.26875 -20 6.4375 C-22.63235184 11.76801249 -23.0756543 16.461161 -21.33984375 22.171875 C-19.10745544 27.31313292 -15.90284209 30.34950764 -11 33 C-5.85605871 34.7146471 -0.84514859 34.90374625 4.0625 32.5 C4.701875 32.005 5.34125 31.51 6 31 C4.02 28.69 2.04 26.38 0 24 C2 20 2 20 3 19 C3.40903064 14.35935663 3.40903064 14.35935663 1.9375 10.0625 C-1.15493758 8.36664713 -3.55514741 8.56939343 -7 9 C-9.22303517 10.32265515 -9.22303517 10.32265515 -10 13 C-9.83973963 14.50589488 -9.62596027 16.00654035 -9.375 17.5 C-8.99609375 19.87109375 -8.99609375 19.87109375 -9 22 C-11.4375 24.5625 -11.4375 24.5625 -14 26 C-17.24154261 23.59498451 -18.35275282 21.58138463 -18.9375 17.6875 C-19.23957283 13.08844111 -18.39168 10.01185032 -16 6 C-11.08615449 0.95546711 -7.0214279 -0.70870487 0 0 Z M205 26 C206 28 206 28 206 28 Z M-47 47 C-46 49 -46 49 -46 49 Z " fill="#FBBB2C" transform="translate(66,27)"/>
<path d="M0 0 C4.46369643 4.79030836 6.77424145 8.27531761 7 14.8125 C6.83749045 19.07025028 5.86612855 22.10258813 3.5625 25.75 C2.5725 25.09 1.5825 24.43 0.5625 23.75 C0.7275 23.09 0.8925 22.43 1.0625 21.75 C1.98416038 16.2200377 2.43525637 12.40200312 -0.1875 7.4375 C-3.06810637 3.99677572 -5.18337868 2.16804044 -9.4375 0.75 C-15.55843081 0.24828436 -18.5542095 0.66166377 -23.4375 4.75 C-26.70862578 7.7955309 -27.14247301 11.12483391 -27.51953125 15.421875 C-27.39095637 19.07095268 -26.14077067 21.54785114 -24.4375 24.75 C-22.7875 23.76 -21.1375 22.77 -19.4375 21.75 C-19.55609375 21.15832031 -19.6746875 20.56664063 -19.796875 19.95703125 C-20.46759048 15.84554534 -20.80948087 13.50946095 -18.9375 9.6875 C-16.4375 7.75 -16.4375 7.75 -12.9375 7.1875 C-9.4375 7.75 -9.4375 7.75 -7 9.3125 C-4.85733152 12.65506283 -4.94176663 14.85495209 -5.4375 18.75 C-6.9375 20.6875 -6.9375 20.6875 -8.4375 21.75 C-7.0677836 25.74500618 -5.18027578 28.55009492 -2.4375 31.75 C-7.48946788 34.85890331 -11.65443238 35.51968886 -17.4375 34.75 C-24.11223054 32.18279595 -28.75860268 28.47785224 -31.703125 21.94921875 C-33.68123333 16.02541561 -32.91482634 11.16006086 -30.4375 5.5 C-27.77645177 0.6390511 -24.56284732 -2.1629741 -19.4375 -4.25 C-12.88097954 -6.13088188 -5.39145004 -4.15361713 0 0 Z " fill="#363335" transform="translate(75.4375,27.25)"/>
<path d="M0 0 C2.97361086 2.21563162 4.36959793 3.73919585 6 7 C6.40203796 9.94827837 6.54942715 12.08145963 4.98828125 14.69140625 C2.25629079 18.09613911 0.28028301 19.7010865 -4.0859375 20.2734375 C-8.59382585 20.4734462 -10.36493427 20.5159909 -14 17.5625 C-14.66 16.716875 -15.32 15.87125 -16 15 C-16.33 14.67 -16.66 14.34 -17 14 C-17.48947846 9.18679513 -17.43360645 6.86721289 -15.25 2.5 C-11.26825185 -1.67625884 -5.26548363 -0.99774724 0 0 Z " fill="#353335" transform="translate(162,39)"/>
<path d="M0 0 C2.64 0 5.28 0 8 0 C8.33 4.29 8.66 8.58 9 13 C9.99 13 10.98 13 12 13 C12.33 8.71 12.66 4.42 13 0 C15.64 0 18.28 0 21 0 C21 4.62 21 9.24 21 14 C21.66 14 22.32 14 23 14 C22.67 15.98 22.34 17.96 22 20 C16.375 20.25 16.375 20.25 13 18 C12.01 18.66 11.02 19.32 10 20 C6.5 20.375 6.5 20.375 3 20 C0.14347358 17.47684394 -0.00348136 15.95376759 -0.29296875 12.109375 C-0.27314945 10.65595991 -0.23754845 9.20268833 -0.1875 7.75 C-0.17396484 7.00492188 -0.16042969 6.25984375 -0.14648438 5.4921875 C-0.11127204 3.66114584 -0.05746851 1.83047831 0 0 Z " fill="#363335" transform="translate(170,39)"/>
<path d="M0 0 C2.64 0 5.28 0 8 0 C8 4.29 8 8.58 8 13 C9.32 12.67 10.64 12.34 12 12 C12.33 8.04 12.66 4.08 13 0 C15.31 0 17.62 0 20 0 C20.06058594 0.95261719 20.12117188 1.90523437 20.18359375 2.88671875 C20.30927734 4.76810547 20.30927734 4.76810547 20.4375 6.6875 C20.51871094 7.92886719 20.59992188 9.17023437 20.68359375 10.44921875 C20.92357889 13.90878613 20.92357889 13.90878613 21.59765625 16.89453125 C21.79681641 17.93673828 21.79681641 17.93673828 22 19 C21 20 21 20 17.9375 20.0625 C16.968125 20.041875 15.99875 20.02125 15 20 C14.67 19.01 14.34 18.02 14 17 C13.484375 17.495 12.96875 17.99 12.4375 18.5 C9.11203064 20.54644269 6.83693587 20.41857482 3 20 C0.97109008 18.47795259 0.11083315 17.61867936 -0.34057617 15.09887695 C-0.32486572 14.40238037 -0.30915527 13.70588379 -0.29296875 12.98828125 C-0.28330078 12.23095703 -0.27363281 11.47363281 -0.26367188 10.69335938 C-0.23853516 9.90767578 -0.21339844 9.12199219 -0.1875 8.3125 C-0.17396484 7.51521484 -0.16042969 6.71792969 -0.14648438 5.89648438 C-0.11117089 3.93070033 -0.05736447 1.96526418 0 0 Z " fill="#2F2E35" transform="translate(88,39)"/>
<path d="M0 0 C2.875 1.5 2.875 1.5 5 4 C5.70435841 6.73395412 5.85763535 9.15270693 6 12 C2.04 12 -1.92 12 -6 12 C-5.67 12.99 -5.34 13.98 -5 15 C-1.7 15 1.6 15 5 15 C5 16.32 5 17.64 5 19 C0.76447144 21.82368571 -3.02477314 21.66653757 -8 21 C-10.93423195 19.20353146 -12.47205355 18.0558929 -14 15 C-14.42071592 11.94079426 -14.48514117 9.0532254 -14 6 C-9.75456152 0.63734087 -6.76730322 -0.57350027 0 0 Z " fill="#3B3734" transform="translate(239,38)"/>
<path d="M0 0 C6.6 0 13.2 0 20 0 C18.4655333 3.83616676 17.15341734 6.49393561 14.875 9.8125 C14.06675781 10.99779297 14.06675781 10.99779297 13.2421875 12.20703125 C12.83226562 12.79871094 12.42234375 13.39039063 12 14 C14.64 14 17.28 14 20 14 C20 15.98 20 17.96 20 20 C13.4 20 6.8 20 0 20 C1.41998861 16.45002848 2.6121589 13.81270066 4.625 10.6875 C5.07101563 9.99011719 5.51703125 9.29273438 5.9765625 8.57421875 C6.31429687 8.05472656 6.65203125 7.53523438 7 7 C4.69 6.67 2.38 6.34 0 6 C0 4.02 0 2.04 0 0 Z " fill="#363334" transform="translate(123,39)"/>
<path d="M0 0 C0.98226562 0.01546875 1.96453125 0.0309375 2.9765625 0.046875 C5.375 0.25 5.375 0.25 6.375 1.25 C6.5625 3.6875 6.5625 3.6875 6.375 6.25 C5.715 6.91 5.055 7.57 4.375 8.25 C4.890625 8.78625 5.40625 9.3225 5.9375 9.875 C7.375 12.25 7.375 12.25 7.25 15.375 C6.375 18.25 6.375 18.25 3.375 20.25 C0.96484375 20.515625 0.96484375 20.515625 -1.6875 20.5 C-2.56535156 20.50515625 -3.44320312 20.5103125 -4.34765625 20.515625 C-6.625 20.25 -6.625 20.25 -8.625 18.25 C-8.75 15.625 -8.75 15.625 -8.625 13.25 C-5.985 13.91 -3.345 14.57 -0.625 15.25 C-2.43334309 13.34648096 -4.14149131 11.88965723 -6.3125 10.375 C-8.625 8.25 -8.625 8.25 -9.125 5.6875 C-8.03228673 0.3605228 -5.01435707 -0.13230494 0 0 Z " fill="#423D34" transform="translate(203.625,38.75)"/>
<path d="M0 0 C2.64 0 5.28 0 8 0 C8 6.6 8 13.2 8 20 C5.36 20 2.72 20 0 20 C0 13.4 0 6.8 0 0 Z " fill="#393534" transform="translate(214,39)"/>
<path d="M0 0 C2.64 0 5.28 0 8 0 C8 4.29 8 8.58 8 13 C8.99 13.33 9.98 13.66 11 14 C11 14.99 11 15.98 11 17 C10 18 10 18 7.96875 18.1328125 C7.1540625 18.13023438 6.339375 18.12765625 5.5 18.125 C4.6853125 18.12757812 3.870625 18.13015625 3.03125 18.1328125 C1 18 1 18 0 17 C-0.07325168 14.13732433 -0.09238205 11.299281 -0.0625 8.4375 C-0.05798828 7.63119141 -0.05347656 6.82488281 -0.04882812 5.99414062 C-0.03700518 3.99606244 -0.01906914 1.99802217 0 0 Z " fill="#393534" transform="translate(88,39)"/>
<path d="M0 0 C2.31 0 4.62 0 7 0 C7 6.27 7 12.54 7 19 C4.69 19 2.38 19 0 19 C0 12.73 0 6.46 0 0 Z " fill="#2B2B35" transform="translate(113,39)"/>
<path d="M0 0 C1.8125 1.1875 1.8125 1.1875 3 3 C3.4334014 5.88934264 3.42525784 7.35092224 1.8125 9.8125 C-0.64907776 11.42525784 -2.11065736 11.4334014 -5 11 C-6.8125 9.8125 -6.8125 9.8125 -8 8 C-8.4334014 5.11065736 -8.42525784 3.64907776 -6.8125 1.1875 C-4.35092224 -0.42525784 -2.88934264 -0.4334014 0 0 Z " fill="#313035" transform="translate(84,56)"/>
<path d="M0 0 C3.94140436 -0.30912975 6.36169288 -0.34690605 9.875 1.5625 C12.5771041 4.66197236 12.76683515 6.95847594 13 11 C8.71 11 4.42 11 0 11 C0 10.67 0 10.34 0 10 C1.98 10 3.96 10 6 10 C4.63016497 6.83884224 4.0109362 6.0072908 1 4 C1.33 3.67 1.66 3.34 2 3 C1.34 2.67 0.68 2.34 0 2 C0 1.34 0 0.68 0 0 Z " fill="#312F35" transform="translate(232,38)"/>
<path d="M0 0 C2.5 0.5 2.5 0.5 4.375 1.6875 C5.5 3.5 5.5 3.5 5.375 6.0625 C4.5 8.5 4.5 8.5 1.5 10.5 C-1.0625 10.375 -1.0625 10.375 -3.5 9.5 C-5 7.75 -5 7.75 -5.5 5.5 C-4.21248842 2.16761708 -3.59600366 0.71920073 0 0 Z M-2.5 2.5 C-2.5 2.83 -2.5 3.16 -2.5 3.5 C-0.85 3.5 0.8 3.5 2.5 3.5 C2.5 3.17 2.5 2.84 2.5 2.5 C0.85 2.5 -0.8 2.5 -2.5 2.5 Z M-3.5 4.5 C-2.5 6.5 -2.5 6.5 -2.5 6.5 Z " fill="#333135" transform="translate(246.5,31.5)"/>
<path d="M0 0 C0.66 0.33 1.32 0.66 2 1 C1.34 2.32 0.68 3.64 0 5 C1.65 5.33 3.3 5.66 5 6 C4.67 6.66 4.34 7.32 4 8 C2.37536158 8.05395478 0.75021459 8.09277195 -0.875 8.125 C-1.77992188 8.14820313 -2.68484375 8.17140625 -3.6171875 8.1953125 C-6 8 -6 8 -8 6 C-8.125 3.375 -8.125 3.375 -8 1 C-5.36 1.66 -2.72 2.32 0 3 C0 2.01 0 1.02 0 0 Z " fill="#343235" transform="translate(203,51)"/>
<path d="M0 0 C-1 3 -1 3 -4 5 C-6.48046875 5.1953125 -6.48046875 5.1953125 -9.1875 5.125 C-10.08855469 5.10695313 -10.98960937 5.08890625 -11.91796875 5.0703125 C-12.60503906 5.04710937 -13.29210937 5.02390625 -14 5 C-14 4.34 -14 3.68 -14 3 C-12.68 2.67 -11.36 2.34 -10 2 C-10.33 1.34 -10.66 0.68 -11 0 C-3.57142857 -1.28571429 -3.57142857 -1.28571429 0 0 Z " fill="#393634" transform="translate(245,54)"/>
<path d="M0 0 C1.67542976 0.28604898 3.34385343 0.61781233 5 1 C5.625 3.375 5.625 3.375 6 6 C5.34 6.66 4.68 7.32 4 8 C0.46428571 7.46428571 0.46428571 7.46428571 -1 6 C-1.125 3.5 -1.125 3.5 -1 1 C-0.67 0.67 -0.34 0.34 0 0 Z " fill="#E1B62D" transform="translate(154,45)"/>
<path d="M0 0 C0.2784375 0.8353125 0.2784375 0.8353125 0.5625 1.6875 C2.39728905 4.63911717 4.64507709 5.9970494 7.5390625 7.8515625 C8.02117187 8.23054688 8.50328125 8.60953125 9 9 C9 9.66 9 10.32 9 11 C6.03 10.67 3.06 10.34 0 10 C-1.125 3.375 -1.125 3.375 0 0 Z " fill="#EEB92D" transform="translate(194,43)"/>
<path d="M0 0 C0.66 0 1.32 0 2 0 C2.309375 1.093125 2.61875 2.18625 2.9375 3.3125 C3.58337897 5.55407994 4.2623117 7.7869351 5 10 C4.0625 12.1875 4.0625 12.1875 3 14 C0.54023511 10.31035266 -0.12465307 8.72571521 -0.0625 4.375 C-0.05347656 3.55773438 -0.04445312 2.74046875 -0.03515625 1.8984375 C-0.02355469 1.27195313 -0.01195312 0.64546875 0 0 Z " fill="#423B34" transform="translate(43,38)"/>
<path d="M0 0 C0.66 0 1.32 0 2 0 C2 3.96 2 7.92 2 12 C2.66 12 3.32 12 4 12 C4 12.66 4 13.32 4 14 C2.68 13.67 1.36 13.34 0 13 C0 8.71 0 4.42 0 0 Z " fill="#EAB62D" transform="translate(178,39)"/>
<path d="M0 0 C1.32 0.66 2.64 1.32 4 2 C3.34 3.32 2.68 4.64 2 6 C0.68 5.67 -0.64 5.34 -2 5 C-1.125 1.125 -1.125 1.125 0 0 Z " fill="#3E3834" transform="translate(217,31)"/>
<path d="M0 0 C1.65 0 3.3 0 5 0 C4.67 1.65 4.34 3.3 4 5 C2.68 4.67 1.36 4.34 0 4 C0 2.68 0 1.36 0 0 Z " fill="#333135" transform="translate(114,32)"/>
<path d="M0 0 C1.32 0.33 2.64 0.66 4 1 C4 2.65 4 4.3 4 6 C2.68 5.67 1.36 5.34 0 5 C0 3.35 0 1.7 0 0 Z " fill="#F9BD2C" transform="translate(154,45)"/>
<path d="M0 0 C0.99 0 1.98 0 3 0 C3 1.65 3 3.3 3 5 C0.69 4.34 -1.62 3.68 -4 3 C-2.68 2.67 -1.36 2.34 0 2 C0 1.34 0 0.68 0 0 Z " fill="#2D2C35" transform="translate(207,40)"/>
<path d="M0 0 C0.66 0 1.32 0 2 0 C2 0.66 2 1.32 2 2 C2.66 2 3.32 2 4 2 C4 2.66 4 3.32 4 4 C2.02 4 0.04 4 -2 4 C-1.34 2.68 -0.68 1.36 0 0 Z " fill="#F2C42C" transform="translate(234,43)"/>
<path d="M0 0 C0.66 0 1.32 0 2 0 C2 0.66 2 1.32 2 2 C1.34 2 0.68 2 0 2 C0 1.34 0 0.68 0 0 Z " fill="#FDBB2D" transform="translate(25,80)"/>
<path d="" fill="#FDBB2D" transform="translate(0,0)"/>
</svg>
