<?xml version="1.0" encoding="UTF-8"?>
<svg version="1.1" xmlns="http://www.w3.org/2000/svg" width="92" height="92">
<path d="M0 0 C30.36 0 60.72 0 92 0 C92 30.36 92 60.72 92 92 C61.64 92 31.28 92 0 92 C0 61.64 0 31.28 0 0 Z " fill="#F3ED7A" transform="translate(0,0)"/>
<path d="M0 0 C2.1640625 0.0234375 2.1640625 0.0234375 4.625 0.375 C5.44226563 0.48585938 6.25953125 0.59671875 7.1015625 0.7109375 C7.72804688 0.80632813 8.35453125 0.90171875 9 1 C9.103125 1.639375 9.20625 2.27875 9.3125 2.9375 C9.539375 3.618125 9.76625 4.29875 10 5 C10.99 5.33 11.98 5.66 13 6 C13 25.8 13 45.6 13 66 C-7.46 66 -27.92 66 -49 66 C-49 64.68 -49 63.36 -49 62 C-50.65 61.67 -52.3 61.34 -54 61 C-54 60.34 -54 59.68 -54 59 C-54.99 59 -55.98 59 -57 59 C-57.4125 57.9275 -57.825 56.855 -58.25 55.75 C-59.6412635 52.45490223 -61.37041272 50.44823644 -64 48 C-64 47.34 -64 46.68 -64 46 C-64.66 46 -65.32 46 -66 46 C-65.67 45.01 -65.34 44.02 -65 43 C-65 43.66 -65 44.32 -65 45 C-64.443125 45.268125 -63.88625 45.53625 -63.3125 45.8125 C-60.80287477 47.10122647 -58.40665764 48.52926478 -56 50 C-56 49.34 -56 48.68 -56 48 C-56.99 47.67 -57.98 47.34 -59 47 C-56.13822943 45.56911472 -54.06624227 46.40008303 -51 47 C-50.67 46.34 -50.34 45.68 -50 45 C-48.35 45 -46.7 45 -45 45 C-46.65 42.69 -48.3 40.38 -50 38 C-48.515 38.495 -48.515 38.495 -47 39 C-42.31654791 39.26211128 -37.62749202 39.23141657 -32.9375 39.25 C-31.63232422 39.270625 -30.32714844 39.29125 -28.98242188 39.3125 C-27.1174707 39.32023437 -27.1174707 39.32023437 -25.21484375 39.328125 C-23.49962524 39.34214355 -23.49962524 39.34214355 -21.74975586 39.35644531 C-20.84233643 39.23881836 -19.93491699 39.12119141 -19 39 C-18.34 38.01 -17.68 37.02 -17 36 C-17.85754883 36.02094727 -18.71509766 36.04189453 -19.59863281 36.06347656 C-22.78918472 36.13176527 -25.97936346 36.18185513 -29.17041016 36.21972656 C-30.5497668 36.23980642 -31.92903869 36.26707666 -33.30810547 36.30175781 C-35.29356979 36.35042817 -37.27966254 36.37086418 -39.265625 36.390625 C-40.45961914 36.41157227 -41.65361328 36.43251953 -42.88378906 36.45410156 C-46 36 -46 36 -48.40527344 34.17871094 C-50.48768048 31.33373231 -50.31307454 29.44381994 -50 26 C-49.7525 26.5775 -49.505 27.155 -49.25 27.75 C-47.75285799 30.44485562 -46.4064328 32.05098002 -44 34 C-40.8169119 34.64071929 -40.8169119 34.64071929 -37.265625 34.609375 C-35.97011719 34.64160156 -34.67460938 34.67382812 -33.33984375 34.70703125 C-31.97656698 34.72177469 -30.61328555 34.73609222 -29.25 34.75 C-27.87105624 34.77816814 -26.49214725 34.80809678 -25.11328125 34.83984375 C-21.74212784 34.91056725 -18.3716672 34.96325504 -15 35 C-15 34.01 -15 33.02 -15 32 C-15.71655762 32.01571045 -16.43311523 32.0314209 -17.17138672 32.04760742 C-20.40584476 32.10981863 -23.64017719 32.14894649 -26.875 32.1875 C-28.00292969 32.21263672 -29.13085938 32.23777344 -30.29296875 32.26367188 C-31.90751953 32.27817383 -31.90751953 32.27817383 -33.5546875 32.29296875 C-35.04718018 32.31653442 -35.04718018 32.31653442 -36.56982422 32.34057617 C-37.77276123 32.17199097 -37.77276123 32.17199097 -39 32 C-41.36086122 28.45870816 -41.57269578 27.17249782 -41 23 C-39.5454503 20.61540365 -38.00643072 19.00643072 -36 17 C-35.34 17 -34.68 17 -34 17 C-33.505 15.515 -33.505 15.515 -33 14 C-32.34 14 -31.68 14 -31 14 C-31 13.34 -31 12.68 -31 12 C-30.34 12 -29.68 12 -29 12 C-28.67 11.01 -28.34 10.02 -28 9 C-27.01 8.67 -26.02 8.34 -25 8 C-26.86823646 12.95023163 -31.10538257 16.10332482 -34.91992188 19.578125 C-36.75646739 21.27578552 -36.75646739 21.27578552 -39 24 C-38.71706358 26.10973746 -38.52549508 27.47450492 -37 29 C-35.41320309 29.12092377 -33.82155746 29.17957324 -32.23046875 29.2109375 C-30.77350586 29.25347656 -30.77350586 29.25347656 -29.28710938 29.296875 C-27.23259749 29.34865854 -25.17788408 29.39301737 -23.12304688 29.4296875 C-21.6602832 29.47609375 -21.6602832 29.47609375 -20.16796875 29.5234375 C-18.82641724 29.5531665 -18.82641724 29.5531665 -17.45776367 29.58349609 C-14.55067865 30.07614406 -13.12346534 30.98009572 -11 33 C-11 33.66 -11 34.32 -11 35 C-10.4225 35.268125 -9.845 35.53625 -9.25 35.8125 C-6.96587952 37.01800803 -5.04568469 38.43135523 -3 40 C-2.98018066 38.85934082 -2.96036133 37.71868164 -2.93994141 36.54345703 C-2.86399433 32.32024677 -2.77526072 28.09738601 -2.68261719 23.87451172 C-2.64428223 22.04515471 -2.60943737 20.21572115 -2.578125 18.38623047 C-2.53257195 15.75981241 -2.47456269 13.13392341 -2.4140625 10.5078125 C-2.39673569 9.27649094 -2.39673569 9.27649094 -2.37905884 8.02029419 C-2.22774341 2.22774341 -2.22774341 2.22774341 0 0 Z " fill="#A2450A" transform="translate(79,26)"/>
<path d="M0 0 C30.36 0 60.72 0 92 0 C92 10.56 92 21.12 92 32 C90.68 31.67 89.36 31.34 88 31 C88 29.68 88 28.36 88 27 C87.11248047 27.04833984 87.11248047 27.04833984 86.20703125 27.09765625 C83.55321022 27.05869314 81.51334014 26.88135586 79 26 C77.21071996 23.78044071 76.1218597 21.63446356 74.97265625 19.03125 C74.17477191 16.83173402 74.17477191 16.83173402 72 16 C72 15.34 72 14.68 72 14 C70.02 13.67 68.04 13.34 66 13 C66 12.34 66 11.68 66 11 C60.73440333 11.09408315 55.46923702 11.20029449 50.20410156 11.31738281 C48.41575687 11.35548767 46.62734035 11.39037162 44.83886719 11.421875 C42.25690165 11.46793013 39.67542275 11.52585428 37.09375 11.5859375 C35.90888 11.60326431 35.90888 11.60326431 34.70007324 11.62094116 C28.45426874 11.78419393 21.27453136 12.34840137 16 16 C14.81669817 17.86644906 14.81669817 17.86644906 14 20 C13.65670654 20.52110352 13.31341309 21.04220703 12.9597168 21.57910156 C11.48812357 25.29121512 11.73524751 28.90302619 11.76953125 32.859375 C11.76998947 33.72258362 11.77044769 34.58579224 11.7709198 35.47515869 C11.77393781 37.30083592 11.78181061 39.12651068 11.79418945 40.95214844 C11.81234297 43.72600594 11.81469965 46.49952701 11.81445312 49.2734375 C11.819373 51.05208618 11.82520335 52.83073262 11.83203125 54.609375 C11.83314407 55.43048767 11.8342569 56.25160034 11.83540344 57.09759521 C11.87631088 62.14583766 12.28314644 67.00168943 13 72 C13.66 72 14.32 72 15 72 C15.2475 72.5775 15.495 73.155 15.75 73.75 C16.91638144 76.11856763 16.91638144 76.11856763 19.0625 77.9375 C21.28970409 80.30839468 21.64629437 81.81664932 22 85 C22.99 85 23.98 85 25 85 C25 85.66 25 86.32 25 87 C26.65 87.33 28.3 87.66 30 88 C30 89.32 30 90.64 30 92 C20.1 92 10.2 92 0 92 C0 61.64 0 31.28 0 0 Z " fill="#F4C939" transform="translate(0,0)"/>
<path d="M0 0 C3.00927734 -0.38818359 3.00927734 -0.38818359 6.8359375 -0.3984375 C7.8495787 -0.40274277 7.8495787 -0.40274277 8.88369751 -0.40713501 C10.3144006 -0.40917749 11.7451315 -0.40363468 13.17578125 -0.39111328 C15.36001607 -0.37510978 17.54238667 -0.39092761 19.7265625 -0.41015625 C21.11719157 -0.40817287 22.50781949 -0.40432723 23.8984375 -0.3984375 C25.16349121 -0.39505371 26.42854492 -0.39166992 27.73193359 -0.38818359 C31.1771419 0.02104106 32.59901722 0.54101533 35 3 C35.48828125 5.3984375 35.48828125 5.3984375 35 8 C33.41796875 10.2890625 33.41796875 10.2890625 31.1875 12.625 C30.37667969 13.48480469 29.56585938 14.34460938 28.73046875 15.23046875 C26.82662364 17.16155056 24.91608305 19.08150777 22.98828125 20.98828125 C22.49110596 21.48054199 21.99393066 21.97280273 21.48168945 22.47998047 C20.05889436 23.87956634 18.62344763 25.26625541 17.1875 26.65234375 C14.80982752 28.87823657 14.80982752 28.87823657 14 32 C15.26457031 31.96519531 16.52914062 31.93039063 17.83203125 31.89453125 C19.49217423 31.86639323 21.15233156 31.83909309 22.8125 31.8125 C24.06256836 31.77479492 24.06256836 31.77479492 25.33789062 31.73632812 C26.14033203 31.72666016 26.94277344 31.71699219 27.76953125 31.70703125 C28.87711792 31.68346558 28.87711792 31.68346558 30.00708008 31.65942383 C32.52230522 32.08925833 33.39441516 33.07463062 35 35 C31.39598519 35.08701039 27.79223988 35.14039388 24.1875 35.1875 C23.16333984 35.21263672 22.13917969 35.23777344 21.08398438 35.26367188 C19.60961914 35.27817383 19.60961914 35.27817383 18.10546875 35.29296875 C17.19949951 35.3086792 16.29353027 35.32438965 15.36010742 35.34057617 C13 35 13 35 11.1184082 33.73168945 C10 32 10 32 10.12866211 30.01464844 C11.11022735 27.7451398 12.17091426 26.48454926 13.94140625 24.765625 C14.52470703 24.19199219 15.10800781 23.61835937 15.70898438 23.02734375 C16.32064453 22.44082031 16.93230469 21.85429688 17.5625 21.25 C18.48579102 20.34701172 18.48579102 20.34701172 19.42773438 19.42578125 C20.94514813 17.94365619 22.47170596 16.4709033 24 15 C23.34 15 22.68 15 22 15 C21.67 15.66 21.34 16.32 21 17 C20.34 17 19.68 17 19 17 C19 17.66 19 18.32 19 19 C17.625 20.625 17.625 20.625 16 22 C15.34 22 14.68 22 14 22 C13.71125 22.61875 13.4225 23.2375 13.125 23.875 C12 26 12 26 10 28 C9.78323592 31.39597063 9.91926148 33.75778445 11 37 C18.92 37 26.84 37 35 37 C35 37.99 35 38.98 35 40 C30.96174934 40.12406007 26.92424362 40.21455045 22.88452148 40.2746582 C21.51192898 40.29972617 20.13946898 40.33379082 18.76733398 40.37719727 C16.78949304 40.43817531 14.81065816 40.46361009 12.83203125 40.48828125 C11.04889526 40.52755737 11.04889526 40.52755737 9.22973633 40.56762695 C5.10677133 39.84301484 3.64358017 38.14919485 1 35 C1.33 36.65 1.66 38.3 2 40 C12.23 40.33 22.46 40.66 33 41 C32.34 42.32 31.68 43.64 31 45 C26.43762069 45.08719631 21.87545614 45.14045922 17.3125 45.1875 C16.01892578 45.21263672 14.72535156 45.23777344 13.39257812 45.26367188 C12.14541016 45.27333984 10.89824219 45.28300781 9.61328125 45.29296875 C8.46641846 45.3086792 7.31955566 45.32438965 6.13793945 45.34057617 C2.64762202 44.96175467 0.79355001 44.08841902 -2 42 C-3.96504425 38.0699115 -3.60864748 33.27348231 -3 29 C-0.5 26.8125 -0.5 26.8125 2 26 C-1.63 25.67 -5.26 25.34 -9 25 C-9 24.67 -9 24.34 -9 24 C-7.60974609 23.92652344 -7.60974609 23.92652344 -6.19140625 23.8515625 C-4.99386719 23.77679688 -3.79632813 23.70203125 -2.5625 23.625 C-0.77005859 23.52058594 -0.77005859 23.52058594 1.05859375 23.4140625 C2.02925781 23.27742188 2.99992187 23.14078125 4 23 C4.33 22.34 4.66 21.68 5 21 C0.38 21 -4.24 21 -9 21 C-9 20.67 -9 20.34 -9 20 C-7.79601562 19.96261719 -6.59203125 19.92523438 -5.3515625 19.88671875 C-3.77600989 19.82107072 -2.20049046 19.75462299 -0.625 19.6875 C0.1690625 19.66494141 0.963125 19.64238281 1.78125 19.61914062 C3.86215581 19.52214925 5.93441332 19.27005175 8 19 C8.66 18.01 9.32 17.02 10 16 C10.66 16 11.32 16 12 16 C12.433125 15.1028125 12.433125 15.1028125 12.875 14.1875 C14 12 14 12 16 9 C14.19402344 9.01740234 14.19402344 9.01740234 12.3515625 9.03515625 C10.77604321 9.04453434 9.20052225 9.05363452 7.625 9.0625 C6.43390625 9.07506836 6.43390625 9.07506836 5.21875 9.08789062 C-0.7734375 9.11328125 -0.7734375 9.11328125 -3 8 C-2.45276317 4.62537285 -1.9451 2.91765 0 0 Z " fill="#1AC1EA" transform="translate(29,21)"/>
<path d="M0 0 C2.85520781 -0.10876982 5.70620561 -0.18766466 8.5625 -0.25 C9.36236328 -0.28351562 10.16222656 -0.31703125 10.98632812 -0.3515625 C16.60110515 -0.44323233 20.70756109 0.21780813 25 4 C28.80126639 9.44956712 29.57108602 14.51978488 29.42578125 21.0234375 C29.42249313 21.85082428 29.41920502 22.67821106 29.41581726 23.53067017 C29.40546642 25.26352925 29.385637 26.9963557 29.35668945 28.72900391 C29.31227389 31.38853903 29.2951933 34.04716957 29.28320312 36.70703125 C29.26979126 38.39584646 29.25487167 40.08465052 29.23828125 41.7734375 C29.23089432 42.56922211 29.22350739 43.36500671 29.21589661 44.18490601 C29.11846113 49.76307775 29.11846113 49.76307775 28 52 C24.85093585 50.58397787 22.50476328 48.86264918 19.9375 46.5625 C19.26589844 45.96566406 18.59429687 45.36882813 17.90234375 44.75390625 C16 43 16 43 14.64550781 41.42236328 C12.58535818 39.64158706 11.46335105 39.58380677 8.76953125 39.48828125 C7.96708984 39.45283203 7.16464844 39.41738281 6.33789062 39.38085938 C5.50451172 39.35830078 4.67113281 39.33574219 3.8125 39.3125 C2.96751953 39.27833984 2.12253906 39.24417969 1.25195312 39.20898438 C-0.83156649 39.12658529 -2.91576216 39.06161355 -5 39 C-4.43200623 35.26188123 -2.93693949 33.59381294 -0.25390625 30.99609375 C0.50083984 30.25552734 1.25558594 29.51496094 2.03320312 28.75195312 C2.82662109 27.98818359 3.62003906 27.22441406 4.4375 26.4375 C6.00083297 24.9175575 7.56212258 23.39550972 9.12109375 21.87109375 C9.8164624 21.20005615 10.51183105 20.52901855 11.22827148 19.83764648 C14.23787149 16.71607294 15.31830486 14.20378668 16 10 C12.04504575 7.38462703 7.83172627 7.55735726 3.25 7.375 C2.06083984 7.31699219 2.06083984 7.31699219 0.84765625 7.2578125 C-1.10119416 7.163892 -3.05056451 7.08087178 -5 7 C-4.34 5.35 -3.68 3.7 -3 2 C-2.01 2 -1.02 2 0 2 C0 1.34 0 0.68 0 0 Z " fill="#F7DC25" transform="translate(48,14)"/>
<path d="M0 0 C1.04590805 0.00222061 2.0918161 0.00444122 3.16941833 0.00672913 C4.35056717 0.00680466 5.531716 0.00688019 6.74865723 0.00695801 C8.03404892 0.01211929 9.31944061 0.01728058 10.64378357 0.02259827 C12.60601112 0.02472069 12.60601112 0.02472069 14.60787964 0.02688599 C18.09150591 0.03071042 21.57509071 0.04054005 25.05870056 0.05158997 C28.6111443 0.06180569 32.16359491 0.06643865 35.71604919 0.07142639 C42.69069523 0.08163219 49.66522729 0.10120388 56.63987732 0.12025452 C56.63987732 10.68025452 56.63987732 21.24025452 56.63987732 32.12025452 C55.31987732 31.79025452 53.99987732 31.46025452 52.63987732 31.12025452 C52.63987732 29.80025452 52.63987732 28.48025452 52.63987732 27.12025452 C51.75235779 27.16859436 51.75235779 27.16859436 50.84690857 27.21791077 C48.19308754 27.17894765 46.15321746 27.00161037 43.63987732 26.12025452 C41.85059727 23.90069522 40.76173702 21.75471808 39.61253357 19.15150452 C38.81464923 16.95198854 38.81464923 16.95198854 36.63987732 16.12025452 C36.63987732 15.46025452 36.63987732 14.80025452 36.63987732 14.12025452 C34.65987732 13.79025452 32.67987732 13.46025452 30.63987732 13.12025452 C30.63987732 12.46025452 30.63987732 11.80025452 30.63987732 11.12025452 C27.33987732 11.12025452 24.03987732 11.12025452 20.63987732 11.12025452 C20.63987732 10.46025452 20.63987732 9.80025452 20.63987732 9.12025452 C15.35987732 9.12025452 10.07987732 9.12025452 4.63987732 9.12025452 C4.63987732 9.45025452 4.63987732 9.78025452 4.63987732 10.12025452 C1.99987732 10.12025452 -0.64012268 10.12025452 -3.36012268 10.12025452 C-3.38701484 8.6411856 -3.4064689 7.16197969 -3.42262268 5.68275452 C-3.43422424 4.85904358 -3.44582581 4.03533264 -3.45777893 3.18666077 C-3.31670401 0.20151542 -2.98932603 0.1523141 0 0 Z " fill="#F2C42D" transform="translate(35.36012268066406,-0.1202545166015625)"/>
<path d="M0 0 C2.97 0.33 5.94 0.66 9 1 C9.495 2.98 9.495 2.98 10 5 C10.99 5.33 11.98 5.66 13 6 C13 25.8 13 45.6 13 66 C-7.46 66 -27.92 66 -49 66 C-49 64.68 -49 63.36 -49 62 C-50.65 61.67 -52.3 61.34 -54 61 C-54 60.34 -54 59.68 -54 59 C-54.99 59 -55.98 59 -57 59 C-57.99 55.535 -57.99 55.535 -59 52 C-58.1646875 52.46148437 -57.329375 52.92296875 -56.46875 53.3984375 C-52.83208174 55.07752983 -49.4198872 55.97998418 -45.5 56.625 C-44.75387451 56.74907227 -44.00774902 56.87314453 -43.23901367 57.00097656 C-35.30357157 58.17404872 -27.31969097 58.48136572 -19.3125 58.75 C-18.01183594 58.79463379 -16.71117187 58.83926758 -15.37109375 58.88525391 C-4.16617503 59.68468365 -4.16617503 59.68468365 6 56 C6.66287032 53.84616595 6.66287032 53.84616595 6.6875 51.4375 C6.93220339 47.06779661 6.93220339 47.06779661 8 46 C8.41763482 41.84687767 8.51827543 37.66969341 8.6875 33.5 C8.74744141 32.33984375 8.80738281 31.1796875 8.86914062 29.984375 C9.52438357 18.23564862 9.52438357 18.23564862 4.5 8.125 C3.675 7.42375 2.85 6.7225 2 6 C0 3 0 3 0 0 Z " fill="#C87506" transform="translate(79,26)"/>
<path d="M0 0 C0 3 0 3 -1.20922852 4.47045898 C-1.76022217 4.97391846 -2.31121582 5.47737793 -2.87890625 5.99609375 C-3.46994141 6.55490234 -4.06097656 7.11371094 -4.66992188 7.68945312 C-5.93180812 8.85497241 -7.19744721 10.01644161 -8.46679688 11.17382812 C-9.05654297 11.73392578 -9.64628906 12.29402344 -10.25390625 12.87109375 C-10.80377197 13.37568115 -11.3536377 13.88026855 -11.92016602 14.40014648 C-13.24021739 15.97772382 -13.24021739 15.97772382 -12.73413086 18.13305664 C-12.15016561 19.98293186 -12.15016561 19.98293186 -11 21 C-9.41320309 21.12092377 -7.82155746 21.17957324 -6.23046875 21.2109375 C-4.77350586 21.25347656 -4.77350586 21.25347656 -3.28710938 21.296875 C-1.23259749 21.34865854 0.82211592 21.39301737 2.87695312 21.4296875 C4.3397168 21.47609375 4.3397168 21.47609375 5.83203125 21.5234375 C7.17358276 21.5531665 7.17358276 21.5531665 8.54223633 21.58349609 C11.44932135 22.07614406 12.87653466 22.98009572 15 25 C15 25.66 15 26.32 15 27 C15.598125 27.268125 16.19625 27.53625 16.8125 27.8125 C18.97224808 28.98493467 20.35790256 30.19369282 22 32 C19.59978678 36.80042643 18.66807048 38.49239156 13.32727051 40.37802124 C9.42274332 41.4215325 5.62953562 41.40837209 1.609375 41.36328125 C0.30882172 41.36402901 0.30882172 41.36402901 -1.01800537 41.36479187 C-2.83657137 41.36246626 -4.65514151 41.35282798 -6.47363281 41.33618164 C-9.25615098 41.31244753 -12.0377178 41.31564973 -14.8203125 41.32226562 C-16.5937557 41.31669247 -18.36719489 41.30958488 -20.140625 41.30078125 C-20.96983459 41.30169266 -21.79904419 41.30260406 -22.65338135 41.30354309 C-29.73297736 41.21643551 -29.73297736 41.21643551 -33 39 C-30.13822943 37.56911472 -28.06624227 38.40008303 -25 39 C-24.67 38.34 -24.34 37.68 -24 37 C-22.35 37 -20.7 37 -19 37 C-21.475 33.535 -21.475 33.535 -24 30 C-23.01 30.33 -22.02 30.66 -21 31 C-16.31654791 31.26211128 -11.62749202 31.23141657 -6.9375 31.25 C-4.97973633 31.2809375 -4.97973633 31.2809375 -2.98242188 31.3125 C-1.1174707 31.32023437 -1.1174707 31.32023437 0.78515625 31.328125 C2.50037476 31.34214355 2.50037476 31.34214355 4.25024414 31.35644531 C5.61137329 31.18000488 5.61137329 31.18000488 7 31 C7.66 30.01 8.32 29.02 9 28 C7.71367676 28.0314209 7.71367676 28.0314209 6.40136719 28.06347656 C3.21081528 28.13176527 0.02063654 28.18185513 -3.17041016 28.21972656 C-4.5497668 28.23980642 -5.92903869 28.26707666 -7.30810547 28.30175781 C-9.29356979 28.35042817 -11.27966254 28.37086418 -13.265625 28.390625 C-14.45961914 28.41157227 -15.65361328 28.43251953 -16.88378906 28.45410156 C-20 28 -20 28 -22.40527344 26.17871094 C-24.48768048 23.33373231 -24.31307454 21.44381994 -24 18 C-23.7525 18.5775 -23.505 19.155 -23.25 19.75 C-21.75285799 22.44485562 -20.4064328 24.05098002 -18 26 C-14.8169119 26.64071929 -14.8169119 26.64071929 -11.265625 26.609375 C-9.97011719 26.64160156 -8.67460938 26.67382812 -7.33984375 26.70703125 C-5.97656698 26.72177469 -4.61328555 26.73609222 -3.25 26.75 C-1.87105624 26.77816814 -0.49214725 26.80809678 0.88671875 26.83984375 C4.25787216 26.91056725 7.6283328 26.96325504 11 27 C11 26.01 11 25.02 11 24 C10.28344238 24.01571045 9.56688477 24.0314209 8.82861328 24.04760742 C5.59415524 24.10981863 2.35982281 24.14894649 -0.875 24.1875 C-2.00292969 24.21263672 -3.13085938 24.23777344 -4.29296875 24.26367188 C-5.90751953 24.27817383 -5.90751953 24.27817383 -7.5546875 24.29296875 C-9.04718018 24.31653442 -9.04718018 24.31653442 -10.56982422 24.34057617 C-11.37178223 24.22818604 -12.17374023 24.1157959 -13 24 C-15.36086122 20.45870816 -15.57269578 19.17249782 -15 15 C-13.5454503 12.61540365 -12.00643072 11.00643072 -10 9 C-9.34 9 -8.68 9 -8 9 C-7.67 8.01 -7.34 7.02 -7 6 C-6.34 6 -5.68 6 -5 6 C-5 5.34 -5 4.68 -5 4 C-4.34 4 -3.68 4 -3 4 C-2.67 3.01 -2.34 2.02 -2 1 C-1.34 0.67 -0.68 0.34 0 0 Z " fill="#E38805" transform="translate(53,34)"/>
<path d="M0 0 C0.66 0.33 1.32 0.66 2 1 C1.57589844 1.42821045 1.15179688 1.8564209 0.71484375 2.29760742 C-1.20316308 4.24854706 -3.10152461 6.2175569 -5 8.1875 C-5.66773437 8.86103516 -6.33546875 9.53457031 -7.0234375 10.22851562 C-7.65507813 10.88916016 -8.28671875 11.54980469 -8.9375 12.23046875 C-9.52402344 12.83270264 -10.11054687 13.43493652 -10.71484375 14.05541992 C-12.33532562 16.50738384 -12.24354431 18.11878379 -12 21 C-11.34 20.34 -10.68 19.68 -10 19 C-9.34 21.31 -8.68 23.62 -8 26 C-0.08 26 7.84 26 16 26 C16 26.99 16 27.98 16 29 C11.96174934 29.12406007 7.92424362 29.21455045 3.88452148 29.2746582 C2.51192898 29.29972617 1.13946898 29.33379082 -0.23266602 29.37719727 C-2.21050696 29.43817531 -4.18934184 29.46361009 -6.16796875 29.48828125 C-7.95110474 29.52755737 -7.95110474 29.52755737 -9.77026367 29.56762695 C-13.89322867 28.84301484 -15.35641983 27.14919485 -18 24 C-17.67 25.65 -17.34 27.3 -17 29 C-6.77 29.33 3.46 29.66 14 30 C13.34 31.32 12.68 32.64 12 34 C7.43762069 34.08719631 2.87545614 34.14045922 -1.6875 34.1875 C-2.98107422 34.21263672 -4.27464844 34.23777344 -5.60742188 34.26367188 C-6.85458984 34.27333984 -8.10175781 34.28300781 -9.38671875 34.29296875 C-10.53358154 34.3086792 -11.68044434 34.32438965 -12.86206055 34.34057617 C-16.35237798 33.96175467 -18.20644999 33.08841902 -21 31 C-22.96504425 27.0699115 -22.60864748 22.27348231 -22 18 C-19.5 15.8125 -19.5 15.8125 -17 15 C-20.63 14.67 -24.26 14.34 -28 14 C-28 13.67 -28 13.34 -28 13 C-26.60974609 12.92652344 -26.60974609 12.92652344 -25.19140625 12.8515625 C-23.99386719 12.77679688 -22.79632813 12.70203125 -21.5625 12.625 C-20.36753906 12.55539063 -19.17257813 12.48578125 -17.94140625 12.4140625 C-16.97074219 12.27742188 -16.00007813 12.14078125 -15 12 C-14.67 11.34 -14.34 10.68 -14 10 C-18.62 10 -23.24 10 -28 10 C-28 9.67 -28 9.34 -28 9 C-22.39 9 -16.78 9 -11 9 C-10.67 9.66 -10.34 10.32 -10 11 C-6.7 7.37 -3.4 3.74 0 0 Z " fill="#2EA3E0" transform="translate(48,32)"/>
<path d="M0 0 C0.99 0.495 0.99 0.495 2 1 C2.07484195 5.80139866 2.12892454 10.60244862 2.16479492 15.40429688 C2.17976766 17.03358891 2.20015321 18.66284145 2.22631836 20.29199219 C2.55435885 41.26085487 2.55435885 41.26085487 -2.875 48.5 C-8.39454478 52.39614925 -13.58620876 52.32045971 -20.12109375 52.3359375 C-21.09861099 52.3425943 -22.07612823 52.3492511 -23.08326721 52.35610962 C-25.1467196 52.36621616 -27.21020453 52.37092726 -29.27368164 52.37060547 C-32.42323804 52.37498019 -35.57139429 52.41132567 -38.72070312 52.44921875 C-40.72916189 52.45508707 -42.73762729 52.45905636 -44.74609375 52.4609375 C-46.15259438 52.48249405 -46.15259438 52.48249405 -47.58750916 52.50448608 C-53.34837518 52.46440194 -56.61315471 51.83799047 -61 48 C-61.875 45.75 -61.875 45.75 -62 44 C-62.66 44 -63.32 44 -64 44 C-63.67 43.01 -63.34 42.02 -63 41 C-63 41.66 -63 42.32 -63 43 C-62.443125 43.268125 -61.88625 43.53625 -61.3125 43.8125 C-58.80287477 45.10122647 -56.40665764 46.52926478 -54 48 C-53.67 47.34 -53.34 46.68 -53 46 C-51.221698 46.01571045 -51.221698 46.01571045 -49.4074707 46.03173828 C-44.99994946 46.06799742 -40.59244135 46.09092204 -36.18481445 46.10986328 C-34.2788674 46.11990737 -32.37293571 46.13354516 -30.46704102 46.15087891 C-27.72408248 46.17519718 -24.98132809 46.18649912 -22.23828125 46.1953125 C-21.38913651 46.20563507 -20.53999176 46.21595764 -19.66511536 46.22659302 C-15.25531622 46.22742524 -12.05933629 45.90027475 -8 44 C-7.01 44 -6.02 44 -5 44 C-4.71125 43.4225 -4.4225 42.845 -4.125 42.25 C-3 40 -3 40 -1.95556641 38.37597656 C-0.55619143 34.89648825 -0.64164857 31.43267674 -0.5859375 27.734375 C-0.56657135 26.94097717 -0.5472052 26.14757935 -0.5272522 25.33013916 C-0.46761639 22.80353443 -0.42113557 20.27688375 -0.375 17.75 C-0.33680545 16.03383463 -0.29775285 14.31768813 -0.2578125 12.6015625 C-0.16192814 8.40119544 -0.07783833 4.20073866 0 0 Z " fill="#11337E" transform="translate(77,28)"/>
<path d="M0 0 C0.83496002 0.00141495 1.66992004 0.0028299 2.53018188 0.00428772 C5.17901292 0.00985451 7.8277573 0.02240078 10.4765625 0.03515625 C12.27994669 0.04017555 14.08333221 0.0447377 15.88671875 0.04882812 C20.29169971 0.05981305 24.69661644 0.07705462 29.1015625 0.09765625 C29.1015625 0.75765625 29.1015625 1.41765625 29.1015625 2.09765625 C31.0815625 2.42765625 33.0615625 2.75765625 35.1015625 3.09765625 C35.1015625 3.75765625 35.1015625 4.41765625 35.1015625 5.09765625 C36.0915625 5.42765625 37.0815625 5.75765625 38.1015625 6.09765625 C41.43050452 10.1874993 42.60383681 12.82377601 42.1015625 18.09765625 C39.11941933 15.40952719 37.9372609 12.70445793 36.45703125 9.03515625 C34.42460413 6.13001547 32.39980504 5.41226716 29.1015625 4.09765625 C25.77150936 3.64449762 22.46687822 3.60952377 19.109375 3.5859375 C18.16343475 3.5679863 17.21749451 3.5500351 16.2428894 3.53153992 C13.23749171 3.47758988 10.23225146 3.44359021 7.2265625 3.41015625 C5.18226983 3.37696968 3.1379979 3.34247878 1.09375 3.30664062 C-3.90353198 3.2218721 -8.90076849 3.15498786 -13.8984375 3.09765625 C-13.8984375 3.75765625 -13.8984375 4.41765625 -13.8984375 5.09765625 C-15.043125 5.77828125 -15.043125 5.77828125 -16.2109375 6.47265625 C-19.14810896 8.24862039 -20.25219811 9.1056228 -21.8984375 12.09765625 C-22.35548558 15.14578488 -22.34256985 18.16828059 -22.33203125 21.24609375 C-22.3372731 22.13624176 -22.34251495 23.02638977 -22.34791565 23.94351196 C-22.3543321 25.8246354 -22.35300371 27.70579898 -22.34448242 29.58691406 C-22.33598738 32.45581113 -22.36471392 35.32270658 -22.39648438 38.19140625 C-22.39809697 40.02213482 -22.39751774 41.8528669 -22.39453125 43.68359375 C-22.40576523 44.53690277 -22.41699921 45.39021179 -22.42857361 46.26937866 C-22.35126033 52.92429648 -20.41244315 56.5836506 -15.6484375 61.34765625 C-15.0709375 61.92515625 -14.4934375 62.50265625 -13.8984375 63.09765625 C-13.8984375 63.75765625 -13.8984375 64.41765625 -13.8984375 65.09765625 C-17.33771329 63.85569555 -20.15051569 62.54025341 -22.8984375 60.09765625 C-22.8984375 59.43765625 -22.8984375 58.77765625 -22.8984375 58.09765625 C-23.5584375 58.09765625 -24.2184375 58.09765625 -24.8984375 58.09765625 C-26.67796802 50.948046 -26.20062507 43.38930545 -26.24853516 36.07006836 C-26.26508983 34.21870346 -26.29237361 32.36740235 -26.33056641 30.51635742 C-26.38563523 27.82828078 -26.4072514 25.14169145 -26.421875 22.453125 C-26.44454437 21.63514938 -26.46721375 20.81717377 -26.49057007 19.97441101 C-26.46842835 13.88289695 -24.76855125 9.81133637 -20.8984375 5.09765625 C-14.49027439 -0.21975569 -7.93040136 -0.05114875 0 0 Z " fill="#8BDFC9" transform="translate(36.8984375,10.90234375)"/>
<path d="M0 0 C6.1084374 3.46695096 6.1084374 3.46695096 8 6 C8.328125 9.06640625 8.328125 9.06640625 8.25 12.5625 C8.23453125 13.71878906 8.2190625 14.87507813 8.203125 16.06640625 C8 19 8 19 7 21 C5.68 20.67 4.36 20.34 3 20 C3.33 19.01 3.66 18.02 4 17 C4.99 17 5.98 17 7 17 C7 15.02 7 13.04 7 11 C5.02 11.33 3.04 11.66 1 12 C1 14.97 1 17.94 1 21 C-0.98 21.99 -2.96 22.98 -5 24 C-5 24.66 -5 25.32 -5 26 C-10.28 26 -15.56 26 -21 26 C-19.94583189 21.78332757 -19.29271035 20.94586955 -16.2890625 18.06640625 C-15.53882813 17.33486328 -14.78859375 16.60332031 -14.015625 15.84960938 C-13.22671875 15.09486328 -12.4378125 14.34011719 -11.625 13.5625 C-10.07086404 12.06863169 -8.52122318 10.57006995 -6.9765625 9.06640625 C-6.28643066 8.40584229 -5.59629883 7.74527832 -4.88525391 7.06469727 C-2.87399577 4.86200236 -1.44880579 2.59999307 0 0 Z " fill="#D39318" transform="translate(64,27)"/>
<path d="M0 0 C2.92540704 0.62687294 5.4835249 1.35127493 8 3 C8.75 5.125 8.75 5.125 9 7 C9.66 7 10.32 7 11 7 C11.19373655 12.2465849 11.37220901 17.49339626 11.53710938 22.7409668 C11.59518244 24.52268072 11.65728307 26.30426845 11.72363281 28.08569336 C11.81878171 30.65975929 11.8989992 33.23394483 11.9765625 35.80859375 C12.00875885 36.59334579 12.0409552 37.37809784 12.0741272 38.18663025 C12.24134184 44.48756691 11.71874828 50.8080389 8.6875 56.4375 C4.66390971 60.16304656 0.2726272 60.2469251 -5 60.1875 C-5.70116943 60.18105469 -6.40233887 60.17460938 -7.12475586 60.16796875 C-19.41951765 60.00378205 -31.71391994 59.4714324 -44 59 C-44 58.34 -44 57.68 -44 57 C-44.78375 56.87625 -45.5675 56.7525 -46.375 56.625 C-49 56 -49 56 -51 54 C-50.19304688 54.13277344 -49.38609375 54.26554687 -48.5546875 54.40234375 C-38.8722546 55.81051074 -29.2091445 56.35127423 -19.4375 56.6875 C-17.47562744 56.75988892 -17.47562744 56.75988892 -15.47412109 56.83374023 C-13.59781006 56.8909021 -13.59781006 56.8909021 -11.68359375 56.94921875 C-10.56525146 56.98362061 -9.44690918 57.01802246 -8.29467773 57.0534668 C-0.72764949 56.99065799 -0.72764949 56.99065799 6 54 C6.66287032 51.84616595 6.66287032 51.84616595 6.6875 49.4375 C6.93220339 45.06779661 6.93220339 45.06779661 8 44 C8.41763482 39.84687767 8.51827543 35.66969341 8.6875 31.5 C8.74744141 30.33984375 8.80738281 29.1796875 8.86914062 27.984375 C9.54454753 16.2509816 9.54454753 16.2509816 4.5 6.1875 C3.675 5.465625 2.85 4.74375 2 4 C0.6875 1.6875 0.6875 1.6875 0 0 Z " fill="#B95C07" transform="translate(79,28)"/>
<path d="M0 0 C0.99 0 1.98 0 3 0 C3.309375 0.9590625 3.309375 0.9590625 3.625 1.9375 C4.89538209 4.34925077 4.89538209 4.34925077 8.125 4.75 C9.07375 4.8325 10.0225 4.915 11 5 C11.185625 6.155 11.37125 7.31 11.5625 8.5 C12.68702168 13.18967188 15.19475772 15.87350114 18.5390625 19.23828125 C20 21 20 21 20 24 C18.35 23.67 16.7 23.34 15 23 C14.67 23.99 14.34 24.98 14 26 C6.09821429 24.66071429 6.09821429 24.66071429 3.0625 21 C-0.09503096 16.40722769 -0.12360862 13.31836815 -0.0625 7.875 C-0.05798828 7.12089844 -0.05347656 6.36679687 -0.04882812 5.58984375 C-0.03703499 3.72652873 -0.01909942 1.86325445 0 0 Z " fill="#FACB19" transform="translate(14,48)"/>
<path d="M0 0 C0 3 0 3 -1.20922852 4.47045898 C-1.76022217 4.97391846 -2.31121582 5.47737793 -2.87890625 5.99609375 C-3.46994141 6.55490234 -4.06097656 7.11371094 -4.66992188 7.68945312 C-5.93180812 8.85497241 -7.19744721 10.01644161 -8.46679688 11.17382812 C-9.05654297 11.73392578 -9.64628906 12.29402344 -10.25390625 12.87109375 C-10.80377197 13.37568115 -11.3536377 13.88026855 -11.92016602 14.40014648 C-13.24021739 15.97772382 -13.24021739 15.97772382 -12.73413086 18.13305664 C-12.15016561 19.98293186 -12.15016561 19.98293186 -11 21 C-9.39011809 21.1329878 -7.77495575 21.20333763 -6.16015625 21.24609375 C-4.6896582 21.29540039 -4.6896582 21.29540039 -3.18945312 21.34570312 C-1.10883172 21.4067832 0.97190397 21.46408969 3.05273438 21.51757812 C4.03435547 21.55173828 5.01597656 21.58589844 6.02734375 21.62109375 C6.93218506 21.6461499 7.83702637 21.67120605 8.76928711 21.69702148 C11 22 11 22 13 24 C14.06364614 27.68185201 14.39265139 29.28786848 12.51171875 32.69921875 C12.01285156 33.45847656 11.51398438 34.21773437 11 35 C6.81851123 34.93091287 2.63797246 34.84284758 -1.54272461 34.73754883 C-2.96351202 34.70439443 -4.38442813 34.67633308 -5.80541992 34.65356445 C-7.8539082 34.61984153 -9.9012272 34.56752255 -11.94921875 34.51171875 C-13.17987061 34.48553467 -14.41052246 34.45935059 -15.6784668 34.43237305 C-19.19353313 33.97480726 -21.13948053 33.03915869 -24 31 C-20.88276652 31 -17.76914931 31.05347446 -14.65234375 31.10546875 C-12.08073587 31.13343549 -9.50912085 31.16075209 -6.9375 31.1875 C-4.97973633 31.22520508 -4.97973633 31.22520508 -2.98242188 31.26367188 C-1.1174707 31.27817383 -1.1174707 31.27817383 0.78515625 31.29296875 C1.92863525 31.3086792 3.07211426 31.32438965 4.25024414 31.34057617 C5.15766357 31.22818604 6.06508301 31.1157959 7 31 C7.66 30.01 8.32 29.02 9 28 C7.71367676 28.0314209 7.71367676 28.0314209 6.40136719 28.06347656 C3.21081528 28.13176527 0.02063654 28.18185513 -3.17041016 28.21972656 C-4.5497668 28.23980642 -5.92903869 28.26707666 -7.30810547 28.30175781 C-9.29356979 28.35042817 -11.27966254 28.37086418 -13.265625 28.390625 C-14.45961914 28.41157227 -15.65361328 28.43251953 -16.88378906 28.45410156 C-20 28 -20 28 -22.40527344 26.17871094 C-24.48768048 23.33373231 -24.31307454 21.44381994 -24 18 C-23.62875 18.86625 -23.62875 18.86625 -23.25 19.75 C-21.75285799 22.44485562 -20.4064328 24.05098002 -18 26 C-14.8169119 26.64071929 -14.8169119 26.64071929 -11.265625 26.609375 C-9.97011719 26.64160156 -8.67460938 26.67382812 -7.33984375 26.70703125 C-5.97656698 26.72177469 -4.61328555 26.73609222 -3.25 26.75 C-1.87105624 26.77816814 -0.49214725 26.80809678 0.88671875 26.83984375 C4.25787216 26.91056725 7.6283328 26.96325504 11 27 C11 26.01 11 25.02 11 24 C10.28344238 24.01571045 9.56688477 24.0314209 8.82861328 24.04760742 C5.59415524 24.10981863 2.35982281 24.14894649 -0.875 24.1875 C-2.00292969 24.21263672 -3.13085938 24.23777344 -4.29296875 24.26367188 C-5.90751953 24.27817383 -5.90751953 24.27817383 -7.5546875 24.29296875 C-9.04718018 24.31653442 -9.04718018 24.31653442 -10.56982422 24.34057617 C-11.37178223 24.22818604 -12.17374023 24.1157959 -13 24 C-15.36086122 20.45870816 -15.57269578 19.17249782 -15 15 C-13.5454503 12.61540365 -12.00643072 11.00643072 -10 9 C-9.34 9 -8.68 9 -8 9 C-7.67 8.01 -7.34 7.02 -7 6 C-6.34 6 -5.68 6 -5 6 C-5 5.34 -5 4.68 -5 4 C-4.34 4 -3.68 4 -3 4 C-2.67 3.01 -2.34 2.02 -2 1 C-1.34 0.67 -0.68 0.34 0 0 Z " fill="#763415" transform="translate(53,34)"/>
<path d="M0 0 C8.25 0 16.5 0 25 0 C25 0.66 25 1.32 25 2 C24.01 2 23.02 2 22 2 C21.34 3.65 20.68 5.3 20 7 C15.38 7 10.76 7 6 7 C5.34 8.32 4.68 9.64 4 11 C3.33333333 12.33333333 2.66666667 13.66666667 2 15 C1.875 12.625 1.875 12.625 2 10 C2.66 9.34 3.32 8.68 4 8 C4.64767793 5.42938689 4.64767793 5.42938689 5 3 C3.68 3 2.36 3 1 3 C1 3.66 1 4.32 1 5 C1.66 5 2.32 5 3 5 C3 5.66 3 6.32 3 7 C2.34 7 1.68 7 1 7 C0.67 7.99 0.34 8.98 0 10 C-1.11375 10.12375 -2.2275 10.2475 -3.375 10.375 C-7.03103677 10.6465813 -7.03103677 10.6465813 -9 13 C-8.72217314 9.01781501 -8.20726652 7.25090158 -5.625 4.125 C-3 2 -3 2 0 2 C0 1.34 0 0.68 0 0 Z " fill="#F3F89F" transform="translate(23,14)"/>
<path d="M0 0 C3.07275391 -0.34057617 3.07275391 -0.34057617 6.9765625 -0.29296875 C7.66181 -0.28872391 8.3470575 -0.28447906 9.05307007 -0.28010559 C11.24411129 -0.26329753 13.43423632 -0.22564405 15.625 -0.1875 C17.10936173 -0.17245579 18.59373785 -0.15876693 20.078125 -0.14648438 C23.71904833 -0.1133879 27.35943478 -0.06159207 31 0 C31 0.33 31 0.66 31 1 C22.585 1.495 22.585 1.495 14 2 C13.67 2.99 13.34 3.98 13 5 C15.97 5.495 15.97 5.495 19 6 C18.67 7.32 18.34 8.64 18 10 C14.87463363 9.86142159 11.74981783 9.71290431 8.625 9.5625 C7.73554687 9.52318359 6.84609375 9.48386719 5.9296875 9.44335938 C5.07890625 9.40146484 4.228125 9.35957031 3.3515625 9.31640625 C2.56604004 9.27974854 1.78051758 9.24309082 0.97119141 9.20532227 C-1 9 -1 9 -3 8 C-2.45276317 4.62537285 -1.9451 2.91765 0 0 Z " fill="#1DCCF6" transform="translate(29,21)"/>
<path d="M0 0 C2.95857409 -0.05379226 5.91617721 -0.09357093 8.875 -0.125 C9.71675781 -0.14175781 10.55851562 -0.15851562 11.42578125 -0.17578125 C12.23144531 -0.18222656 13.03710938 -0.18867188 13.8671875 -0.1953125 C14.61081543 -0.20578613 15.35444336 -0.21625977 16.12060547 -0.22705078 C18 0 18 0 20 2 C20 3.32 20 4.64 20 6 C18.68 5.67 17.36 5.34 16 5 C16 5.66 16 6.32 16 7 C16.66 7 17.32 7 18 7 C18 7.66 18 8.32 18 9 C16.125 9.625 16.125 9.625 14 10 C13.34 9.34 12.68 8.68 12 8 C9.10032243 7.69324768 6.28216822 7.48826629 3.375 7.375 C2.57320312 7.33632813 1.77140625 7.29765625 0.9453125 7.2578125 C-1.03607556 7.16346069 -3.01800645 7.08063785 -5 7 C-4.34 5.35 -3.68 3.7 -3 2 C-2.01 2 -1.02 2 0 2 C0 1.34 0 0.68 0 0 Z " fill="#FAE743" transform="translate(48,14)"/>
<path d="M0 0 C0.33 0 0.66 0 1 0 C1.02467759 5.37515933 1.04284928 10.75028585 1.05493164 16.12548828 C1.05996737 17.95492121 1.06679627 19.78435009 1.07543945 21.61376953 C1.08753824 24.23991898 1.09323583 26.86601532 1.09765625 29.4921875 C1.10281754 30.31306854 1.10797882 31.13394958 1.11329651 31.97970581 C1.11387171 37.77225659 1.11387171 37.77225659 0 40 C-3.23861303 38.55575365 -5.61969163 36.74227753 -8.25 34.375 C-8.95640625 33.74335937 -9.6628125 33.11171875 -10.390625 32.4609375 C-10.92171875 31.97882812 -11.4528125 31.49671875 -12 31 C-10 30 -10 30 -7 30 C-6.67 29.01 -6.34 28.02 -6 27 C-5.34 27 -4.68 27 -4 27 C-3.67 22.71 -3.34 18.42 -3 14 C-2.34 14 -1.68 14 -1 14 C-0.67 9.38 -0.34 4.76 0 0 Z " fill="#EFBD0D" transform="translate(76,26)"/>
<path d="M0 0 C3.43742918 -0.05802698 6.87473253 -0.09360486 10.3125 -0.125 C11.28896484 -0.14175781 12.26542969 -0.15851562 13.27148438 -0.17578125 C14.20927734 -0.18222656 15.14707031 -0.18867188 16.11328125 -0.1953125 C16.97735596 -0.20578613 17.84143066 -0.21625977 18.73168945 -0.22705078 C21 0 21 0 24 2 C24.47730962 5.72301503 24.1387261 6.79191085 22 10 C20.68 10 19.36 10 18 10 C17.5359375 8.824375 17.5359375 8.824375 17.0625 7.625 C16.07124962 5.07669872 16.07124962 5.07669872 15 3 C14.34 3 13.68 3 13 3 C13.33 3.66 13.66 4.32 14 5 C14.039992 6.99960012 14.04346799 9.00047242 14 11 C13.01 11 12.02 11 11 11 C11 10.01 11 9.02 11 8 C10.34 8 9.68 8 9 8 C8.67 7.34 8.34 6.68 8 6 C6.11235097 5.31527335 6.11235097 5.31527335 3.9375 4.875 C3.20402344 4.70742188 2.47054687 4.53984375 1.71484375 4.3671875 C1.14894531 4.24601562 0.58304688 4.12484375 0 4 C0.99 3.67 1.98 3.34 3 3 C3 2.34 3 1.68 3 1 C2.01 0.67 1.02 0.34 0 0 Z " fill="#12CBF7" transform="translate(40,22)"/>
<path d="M0 0 C0.02710123 2.5625718 0.04688771 5.12485365 0.0625 7.6875 C0.07087891 8.40873047 0.07925781 9.12996094 0.08789062 9.87304688 C0.10532516 13.69120921 0.11659786 17.32716553 -1 21 C-1.66 21.33 -2.32 21.66 -3 22 C-3 22.99 -3 23.98 -3 25 C-7.99911924 24.52389341 -10.97832683 22.96837781 -15 20 C-13 17 -13 17 -9 16 C-8.67 13.03 -8.34 10.06 -8 7 C-6.02 6.67 -4.04 6.34 -2 6 C-2 7.98 -2 9.96 -2 12 C-2.99 12.33 -3.98 12.66 -5 13 C-5 13.66 -5 14.32 -5 15 C-4.01 15.33 -3.02 15.66 -2 16 C-1.67 11.38 -1.34 6.76 -1 2 C-1.99 1.67 -2.98 1.34 -4 1 C-1 0 -1 0 0 0 Z " fill="#FAD513" transform="translate(73,32)"/>
<path d="M0 0 C6.27 0.33 12.54 0.66 19 1 C16.9420488 5.11590239 15.64486906 7.23180532 12 10 C8.70404172 10.59852894 5.52320488 10.47418592 2.1875 10.3125 C1.30384766 10.28994141 0.42019531 10.26738281 -0.49023438 10.24414062 C-2.6608891 10.18547428 -4.8306669 10.09579979 -7 10 C-6.67 9.01 -6.34 8.02 -6 7 C-1.71 7 2.58 7 7 7 C7 6.34 7 5.68 7 5 C6.21625 4.731875 5.4325 4.46375 4.625 4.1875 C2 3 2 3 0 0 Z " fill="#A49342" transform="translate(26,29)"/>
<path d="M0 0 C0.99 0.66 1.98 1.32 3 2 C3.1875 5.125 3.1875 5.125 3 8 C3.66 8.33 4.32 8.66 5 9 C5 10.66666667 5 12.33333333 5 14 C-0.28 14 -5.56 14 -11 14 C-9.83505453 9.34021814 -8.34815157 8.03113315 -4.9375 4.75 C-4.01839844 3.85796875 -3.09929688 2.9659375 -2.15234375 2.046875 C-1.44207031 1.37140625 -0.73179688 0.6959375 0 0 Z " fill="#DCA11B" transform="translate(54,39)"/>
<path d="M0 0 C0.99 0 1.98 0 3 0 C3 0.66 3 1.32 3 2 C3.66 2 4.32 2 5 2 C5.625 4.3125 5.625 4.3125 6 7 C5.01 8.485 5.01 8.485 4 10 C3.34 10 2.68 10 2 10 C2 10.66 2 11.32 2 12 C0.625 13.625 0.625 13.625 -1 15 C-1.66 15 -2.32 15 -3 15 C-3.226875 15.515625 -3.45375 16.03125 -3.6875 16.5625 C-5.48981755 19.90966116 -7.61282504 23.03890492 -10 26 C-10.33 26 -10.66 26 -11 26 C-11.5 23.5 -11.5 23.5 -11 20 C-9.21647762 17.8038717 -7.25743539 15.95393055 -5.1796875 14.03515625 C-2.17686829 11.23144871 0.37204396 8.15354725 3 5 C-1.33409466 8.18683431 -4.6189962 11.86378916 -8 16 C-8.625 14.1875 -8.625 14.1875 -9 12 C-8.34 11.01 -7.68 10.02 -7 9 C-6.34 9 -5.68 9 -5 9 C-4.71125 8.401875 -4.4225 7.80375 -4.125 7.1875 C-2.96934423 4.94039155 -1.80296495 2.80296495 0 1 C0 0.67 0 0.34 0 0 Z " fill="#1DBDDF" transform="translate(46,28)"/>
<path d="M0 0 C0.33 0.66 0.66 1.32 1 2 C2.76591887 3.00916033 2.76591887 3.00916033 5 4 C5.8451416 4.50635986 6.6902832 5.01271973 7.56103516 5.53442383 C11.94619563 7.40323814 15.62049304 7.47601743 20.3359375 7.51171875 C21.21528961 7.52966995 22.09464172 7.54762115 23.00064087 7.56611633 C25.79204605 7.62002812 28.58328211 7.65405329 31.375 7.6875 C33.27476302 7.72069 35.17450377 7.75518121 37.07421875 7.79101562 C41.71602344 7.87574349 46.35777965 7.94264561 51 8 C51 8.66 51 9.32 51 10 C46.62515941 10.17102725 42.25010879 10.33598883 37.875 10.5 C36.65683594 10.54769531 35.43867187 10.59539062 34.18359375 10.64453125 C27.89317684 10.87750965 21.60292652 11.0607694 15.30859375 11.140625 C13.62721313 11.16431152 13.62721313 11.16431152 11.91186523 11.18847656 C7.70348943 10.91608064 5.92254954 10.00605095 3 7 C2.125 4.75 2.125 4.75 2 3 C1.34 3 0.68 3 0 3 C0 2.01 0 1.02 0 0 Z " fill="#1E3B4D" transform="translate(13,69)"/>
<path d="M0 0 C4.95 2.31 9.9 4.62 15 7 C15 7.66 15 8.32 15 9 C17.31 9.33 19.62 9.66 22 10 C22 10.66 22 11.32 22 12 C22.66 12 23.32 12 24 12 C24 12.66 24 13.32 24 14 C19.38 14 14.76 14 10 14 C10 12.68 10 11.36 10 10 C8.35 9.67 6.7 9.34 5 9 C5 8.34 5 7.68 5 7 C4.01 7 3.02 7 2 7 C1.34 4.69 0.68 2.38 0 0 Z " fill="#D28508" transform="translate(20,78)"/>
<path d="M0 0 C6.51643074 -0.12531598 6.51643074 -0.12531598 8.86816406 0.48413086 C11.55245138 1.13368412 14.09965432 1.2178448 16.859375 1.31640625 C17.97441406 1.35830078 19.08945312 1.40019531 20.23828125 1.44335938 C21.39714844 1.48267578 22.55601563 1.52199219 23.75 1.5625 C24.92433594 1.60568359 26.09867188 1.64886719 27.30859375 1.69335938 C30.20561451 1.79934794 33.10271935 1.90141638 36 2 C35.67 2.66 35.34 3.32 35 4 C29.37664064 4.04946121 23.7534081 4.08574868 18.12988281 4.10986328 C16.21709996 4.1199169 14.30433245 4.13356173 12.39160156 4.15087891 C9.64123748 4.17515522 6.89107672 4.1864895 4.140625 4.1953125 C3.28631897 4.20563507 2.43201294 4.21595764 1.55181885 4.22659302 C0.35102692 4.22681961 0.35102692 4.22681961 -0.87402344 4.22705078 C-1.92659332 4.23371262 -1.92659332 4.23371262 -3.00042725 4.24050903 C-5.33872645 3.95925791 -6.96267675 3.15285101 -9 2 C-6.13822943 0.56911472 -4.06624227 1.40008303 -1 2 C-0.67 1.34 -0.34 0.68 0 0 Z " fill="#E19403" transform="translate(29,71)"/>
<path d="M0 0 C0 3.7168534 -0.64478586 5.13726597 -3 8 C-6.08764648 8.58349609 -6.08764648 8.58349609 -9.87109375 8.5234375 C-10.54866226 8.51873444 -11.22623077 8.51403137 -11.92433167 8.50918579 C-14.09642123 8.48785217 -16.2660689 8.43142586 -18.4375 8.375 C-19.86390854 8.35847977 -21.29034403 8.34413508 -22.71679688 8.33203125 C-30.84158932 8.23580505 -38.91294872 7.8138278 -47 7 C-47 6.67 -47 6.34 -47 6 C-45.84999512 5.98541748 -44.69999023 5.97083496 -43.51513672 5.95581055 C-39.23211195 5.89766238 -34.94960384 5.82043076 -30.66699219 5.73754883 C-28.81649181 5.70437704 -26.96589214 5.67632113 -25.11523438 5.65356445 C-22.44878997 5.6198755 -19.7832491 5.5675534 -17.1171875 5.51171875 C-16.29507782 5.50532883 -15.47296814 5.4989389 -14.62594604 5.49235535 C-8.740569 5.34306955 -4.31921265 4.31921265 0 0 Z " fill="#8A3010" transform="translate(75,74)"/>
<path d="M0 0 C0 3 0 3 -1.20922852 4.47045898 C-1.76022217 4.97391846 -2.31121582 5.47737793 -2.87890625 5.99609375 C-3.46994141 6.55490234 -4.06097656 7.11371094 -4.66992188 7.68945312 C-5.93180812 8.85497241 -7.19744721 10.01644161 -8.46679688 11.17382812 C-9.05654297 11.73392578 -9.64628906 12.29402344 -10.25390625 12.87109375 C-10.80377197 13.37568115 -11.3536377 13.88026855 -11.92016602 14.40014648 C-13.24021739 15.97772382 -13.24021739 15.97772382 -12.73413086 18.13305664 C-12.15016561 19.98293186 -12.15016561 19.98293186 -11 21 C-9.36743242 21.15714654 -7.72864662 21.25085414 -6.08984375 21.31640625 C-4.60581055 21.37924805 -4.60581055 21.37924805 -3.09179688 21.44335938 C-2.05087891 21.48267578 -1.00996094 21.52199219 0.0625 21.5625 C1.10728516 21.60568359 2.15207031 21.64886719 3.22851562 21.69335938 C5.81886884 21.79981225 8.40932186 21.9018276 11 22 C11 22.66 11 23.32 11 24 C7.04180389 24.08678303 3.08385066 24.14031733 -0.875 24.1875 C-2.00292969 24.21263672 -3.13085938 24.23777344 -4.29296875 24.26367188 C-5.90751953 24.27817383 -5.90751953 24.27817383 -7.5546875 24.29296875 C-9.04718018 24.31653442 -9.04718018 24.31653442 -10.56982422 24.34057617 C-11.37178223 24.22818604 -12.17374023 24.1157959 -13 24 C-15.36086122 20.45870816 -15.57269578 19.17249782 -15 15 C-13.5454503 12.61540365 -12.00643072 11.00643072 -10 9 C-9.34 9 -8.68 9 -8 9 C-7.67 8.01 -7.34 7.02 -7 6 C-6.34 6 -5.68 6 -5 6 C-5 5.34 -5 4.68 -5 4 C-4.34 4 -3.68 4 -3 4 C-2.67 3.01 -2.34 2.02 -2 1 C-1.34 0.67 -0.68 0.34 0 0 Z " fill="#23385C" transform="translate(53,34)"/>
<path d="M0 0 C26.17654243 -0.20638953 26.17654243 -0.20638953 36 1 C35.67 1.66 35.34 2.32 35 3 C30.62539593 3.19762348 26.25031325 3.38131371 21.875 3.5625 C20.6375 3.61857422 19.4 3.67464844 18.125 3.73242188 C16.32675781 3.80493164 16.32675781 3.80493164 14.4921875 3.87890625 C12.84259033 3.94960327 12.84259033 3.94960327 11.15966797 4.02172852 C7.99584735 3.99997144 5.10041957 3.60660383 2 3 C2 2.34 2 1.68 2 1 C1.34 0.67 0.68 0.34 0 0 Z " fill="#C36A05" transform="translate(40,87)"/>
<path d="M0 0 C0.66 0.33 1.32 0.66 2 1 C1.57589844 1.41773682 1.15179688 1.83547363 0.71484375 2.26586914 C-1.20853941 4.18053367 -3.10399201 6.12073892 -5 8.0625 C-5.66773437 8.71927734 -6.33546875 9.37605469 -7.0234375 10.05273438 C-10.29024348 13.43621199 -11.88219588 15.08793843 -12.5 19.87109375 C-12.17736593 22.89566119 -12.17736593 22.89566119 -11 25 C-11.99 24.67 -12.98 24.34 -14 24 C-15.36952673 21.26094655 -15.12621361 19.02912668 -15 16 C-14.67 15.34 -14.34 14.68 -14 14 C-18.62 14 -23.24 14 -28 14 C-28 13.67 -28 13.34 -28 13 C-26.60974609 12.92652344 -26.60974609 12.92652344 -25.19140625 12.8515625 C-23.99386719 12.77679688 -22.79632813 12.70203125 -21.5625 12.625 C-20.36753906 12.55539063 -19.17257813 12.48578125 -17.94140625 12.4140625 C-16.97074219 12.27742188 -16.00007813 12.14078125 -15 12 C-14.67 11.34 -14.34 10.68 -14 10 C-18.62 10 -23.24 10 -28 10 C-28 9.67 -28 9.34 -28 9 C-22.39 9 -16.78 9 -11 9 C-10.67 9.66 -10.34 10.32 -10 11 C-6.7 7.37 -3.4 3.74 0 0 Z " fill="#173464" transform="translate(48,32)"/>
<path d="M0 0 C9.9 0 19.8 0 30 0 C30 0.99 30 1.98 30 3 C20.43 3 10.86 3 1 3 C0.67 2.01 0.34 1.02 0 0 Z " fill="#1498E5" transform="translate(34,58)"/>
<path d="M0 0 C2.13093906 1.06546953 3.36587557 2.29159719 5 4 C5.99 3.34 6.98 2.68 8 2 C10.5 2.125 10.5 2.125 13 3 C14.8125 5.0625 14.8125 5.0625 16 7 C13 8 13 8 10 7 C9.67 7.99 9.34 8.98 9 10 C7.72125 9.71125 6.4425 9.4225 5.125 9.125 C4.40570312 8.96257812 3.68640625 8.80015625 2.9453125 8.6328125 C1 8 1 8 -1 6 C-0.625 2.875 -0.625 2.875 0 0 Z " fill="#F9C30E" transform="translate(19,64)"/>
<path d="M0 0 C0.33 0 0.66 0 1 0 C1.02187378 1.43666016 1.02187378 1.43666016 1.04418945 2.90234375 C1.10258363 6.48848011 1.17980984 10.07401526 1.26245117 13.65966797 C1.29550862 15.20546643 1.32359903 16.75138004 1.34643555 18.29736328 C1.45390557 33.32258233 1.45390557 33.32258233 9 46 C9.66 46.33 10.32 46.66 11 47 C11 47.66 11 48.32 11 49 C7.56072421 47.7580393 4.74792181 46.44259716 2 44 C2 43.34 2 42.68 2 42 C1.34 42 0.68 42 0 42 C0 28.14 0 14.28 0 0 Z " fill="#23D7F8" transform="translate(12,27)"/>
<path d="M0 0 C3.07275391 -0.34057617 3.07275391 -0.34057617 6.9765625 -0.29296875 C7.66181 -0.28872391 8.3470575 -0.28447906 9.05307007 -0.28010559 C11.24411129 -0.26329753 13.43423632 -0.22564405 15.625 -0.1875 C17.10936173 -0.17245579 18.59373785 -0.15876693 20.078125 -0.14648438 C23.71904833 -0.1133879 27.35943478 -0.06159207 31 0 C31 0.33 31 0.66 31 1 C30.31373535 1.02505615 29.6274707 1.0501123 28.92041016 1.07592773 C25.82174183 1.19171427 22.72339077 1.31451885 19.625 1.4375 C18.54476562 1.47681641 17.46453125 1.51613281 16.3515625 1.55664062 C15.3203125 1.59853516 14.2890625 1.64042969 13.2265625 1.68359375 C11.79691162 1.73858032 11.79691162 1.73858032 10.33837891 1.79467773 C7.97867651 1.85763465 7.97867651 1.85763465 6 3 C6 3.66 6 4.32 6 5 C5.01 5.33 4.02 5.66 3 6 C2.67 6.99 2.34 7.98 2 9 C0.35 8.67 -1.3 8.34 -3 8 C-2.45276317 4.62537285 -1.9451 2.91765 0 0 Z " fill="#5BE8F4" transform="translate(29,21)"/>
<path d="M0 0 C0.66 0.33 1.32 0.66 2 1 C1.67 2.65 1.34 4.3 1 6 C-6.51747571 7.16898546 -13.98627833 7.0239501 -21.5625 6.75 C-22.55072754 6.72365479 -23.53895508 6.69730957 -24.55712891 6.67016602 C-25.95390869 6.60913696 -25.95390869 6.60913696 -27.37890625 6.546875 C-28.2201001 6.51432617 -29.06129395 6.48177734 -29.92797852 6.44824219 C-32 6 -32 6 -34 3 C-30.16643908 3.14019725 -26.33321567 3.28818288 -22.5 3.4375 C-21.42234375 3.47681641 -20.3446875 3.51613281 -19.234375 3.55664062 C-13.43281536 3.78658049 -7.74731473 4.16998731 -2 5 C-1.34 3.35 -0.68 1.7 0 0 Z " fill="#D66B08" transform="translate(66,64)"/>
<path d="M0 0 C1.8871875 0.061875 1.8871875 0.061875 3.8125 0.125 C3.8125 0.785 3.8125 1.445 3.8125 2.125 C2.8225 2.125 1.8325 2.125 0.8125 2.125 C0.1525 3.775 -0.5075 5.425 -1.1875 7.125 C-4.8175 7.125 -8.4475 7.125 -12.1875 7.125 C-12.1875 5.805 -12.1875 4.485 -12.1875 3.125 C-11.424375 3.00125 -10.66125 2.8775 -9.875 2.75 C-6.02480545 1.85460592 -4.08767851 -0.13402225 0 0 Z " fill="#FAF376" transform="translate(44.1875,13.875)"/>
<path d="M0 0 C2.87525669 -0.05425013 5.74947646 -0.09379277 8.625 -0.125 C9.43324219 -0.14175781 10.24148437 -0.15851562 11.07421875 -0.17578125 C15.80093815 -0.21420986 19.55387702 0.17262906 24 2 C24 2.66 24 3.32 24 4 C24.99 4.33 25.98 4.66 27 5 C30.32894202 9.08984305 31.50227431 11.72611976 31 17 C28.61010467 14.85110252 27.48192156 13.03454212 26.3125 10.0625 C24.40718453 6.23780769 22.62813621 4.37612007 18.703125 2.67578125 C12.61124549 1.15281137 6.25138562 1.15173266 0 1 C0 0.67 0 0.34 0 0 Z " fill="#24CCE6" transform="translate(48,12)"/>
<path d="M0 0 C0.33 0.66 0.66 1.32 1 2 C1.55985596 1.98428955 2.11971191 1.9685791 2.6965332 1.95239258 C5.2350859 1.89000152 7.77347729 1.85099782 10.3125 1.8125 C11.19357422 1.78736328 12.07464844 1.76222656 12.98242188 1.73632812 C14.25375977 1.72182617 14.25375977 1.72182617 15.55078125 1.70703125 C16.72120972 1.68346558 16.72120972 1.68346558 17.9152832 1.65942383 C20 2 20 2 23 5 C15.74 5 8.48 5 1 5 C0.67 3.35 0.34 1.7 0 0 Z " fill="#1EB2F0" transform="translate(41,51)"/>
<path d="M0 0 C0.99 0 1.98 0 3 0 C3.309375 0.9590625 3.309375 0.9590625 3.625 1.9375 C4.89538209 4.34925077 4.89538209 4.34925077 8.125 4.75 C9.07375 4.8325 10.0225 4.915 11 5 C11 5.99 11 6.98 11 8 C9.3603125 8.2165625 9.3603125 8.2165625 7.6875 8.4375 C4.06877013 8.88288104 4.06877013 8.88288104 1 10 C1 11.98 1 13.96 1 16 C0.67 16 0.34 16 0 16 C0 10.72 0 5.44 0 0 Z " fill="#FAD524" transform="translate(14,48)"/>
<path d="M0 0 C5.28 0.33 10.56 0.66 16 1 C15 5 15 5 13.4375 6.25 C9.89085382 7.34127575 6.70471601 7.12349053 3 7 C3 6.01 3 5.02 3 4 C2.01 3.67 1.02 3.34 0 3 C0 2.01 0 1.02 0 0 Z " fill="#B1AC4C" transform="translate(16,43)"/>
<path d="M0 0 C2.92540704 0.62687294 5.4835249 1.35127493 8 3 C8.75 5.125 8.75 5.125 9 7 C9.66 7 10.32 7 11 7 C11 11.29 11 15.58 11 20 C8.68508271 17.68508271 8.66787556 16.8284171 8.1875 13.6875 C7.26946349 9.10466172 5.54652862 7.10321254 2 4 C0.6875 1.6875 0.6875 1.6875 0 0 Z " fill="#BE6C08" transform="translate(79,28)"/>
<path d="M0 0 C0.495 1.485 0.495 1.485 1 3 C-1.99990297 7.32338957 -3.93361703 9.35831331 -9 11 C-12.41333008 11.22705078 -12.41333008 11.22705078 -16.26953125 11.1953125 C-16.95053391 11.1924826 -17.63153656 11.18965271 -18.33317566 11.18673706 C-20.49313455 11.17560525 -22.65266794 11.15051457 -24.8125 11.125 C-26.28319711 11.11496111 -27.75390076 11.10583685 -29.22460938 11.09765625 C-32.81654286 11.07568913 -36.40822985 11.0412082 -40 11 C-40 10.67 -40 10.34 -40 10 C-30.76 10 -21.52 10 -12 10 C-12 9.34 -12 8.68 -12 8 C-10.14375 7.4121875 -10.14375 7.4121875 -8.25 6.8125 C-4.29461634 5.35377695 -2.32850657 3.58978096 0 0 Z " fill="#0B264B" transform="translate(76,69)"/>
<path d="M0 0 C1.76923828 0.01353516 1.76923828 0.01353516 3.57421875 0.02734375 C4.47785156 0.03894531 5.38148437 0.05054688 6.3125 0.0625 C6.3125 1.0525 6.3125 2.0425 6.3125 3.0625 C3.6725 3.3925 1.0325 3.7225 -1.6875 4.0625 C-1.6875 5.0525 -1.6875 6.0425 -1.6875 7.0625 C-2.6775 7.0625 -3.6675 7.0625 -4.6875 7.0625 C-4.97625 7.64 -5.265 8.2175 -5.5625 8.8125 C-6.60416667 10.89583333 -7.64583333 12.97916667 -8.6875 15.0625 C-8.8125 12.6875 -8.8125 12.6875 -8.6875 10.0625 C-8.0275 9.4025 -7.3675 8.7425 -6.6875 8.0625 C-6.03982207 5.49188689 -6.03982207 5.49188689 -5.6875 3.0625 C-7.0075 2.4025 -8.3275 1.7425 -9.6875 1.0625 C-6.26517028 -0.07827657 -3.60076783 -0.03565117 0 0 Z " fill="#EDF799" transform="translate(33.6875,13.9375)"/>
<path d="M0 0 C0.02696365 1.79158489 0.04637917 3.58328473 0.0625 5.375 C0.07410156 6.37273438 0.08570312 7.37046875 0.09765625 8.3984375 C0 11 0 11 -1 13 C-2.32 12.67 -3.64 12.34 -5 12 C-4.67 11.01 -4.34 10.02 -4 9 C-3.01 9 -2.02 9 -1 9 C-1 7.02 -1 5.04 -1 3 C-2.98 3.33 -4.96 3.66 -7 4 C-7 6.97 -7 9.94 -7 13 C-8.65 13.33 -10.3 13.66 -12 14 C-12 13.01 -12 12.02 -12 11 C-10.68 11 -9.36 11 -8 11 C-8 8.03 -8 5.06 -8 2 C-2.25 0 -2.25 0 0 0 Z " fill="#1F203C" transform="translate(72,35)"/>
<path d="M0 0 C1.98 0.99 3.96 1.98 6 3 C6 3.99 6 4.98 6 6 C6.598125 6.268125 7.19625 6.53625 7.8125 6.8125 C10 8 10 8 11.4375 9.5625 C13.49199044 11.45263121 15.27994277 11.6324247 18 12 C18 12.66 18 13.32 18 14 C15.36 14 12.72 14 10 14 C10 12.68 10 11.36 10 10 C8.35 9.67 6.7 9.34 5 9 C5 8.34 5 7.68 5 7 C4.01 7 3.02 7 2 7 C1.34 4.69 0.68 2.38 0 0 Z " fill="#E1A510" transform="translate(20,78)"/>
<path d="M0 0 C5.94 0 11.88 0 18 0 C17.01 1.485 17.01 1.485 16 3 C13.20263672 3.34057617 13.20263672 3.34057617 9.6796875 3.29296875 C8.42285156 3.28330078 7.16601562 3.27363281 5.87109375 3.26367188 C4.55238281 3.23853516 3.23367187 3.21339844 1.875 3.1875 C0.53517097 3.17245483 -0.80467404 3.15876613 -2.14453125 3.14648438 C-5.43008842 3.11102872 -8.71484582 3.06160849 -12 3 C-12 2.67 -12 2.34 -12 2 C-6.06 1.505 -6.06 1.505 0 1 C0 0.67 0 0.34 0 0 Z " fill="#075ABE" transform="translate(44,63)"/>
<path d="M0 0 C0.66 0.33 1.32 0.66 2 1 C2 1.66 2 2.32 2 3 C-0.2910905 3.19441368 -2.58290337 3.38033135 -4.875 3.5625 C-6.78925781 3.71912109 -6.78925781 3.71912109 -8.7421875 3.87890625 C-12 4 -12 4 -14 3 C-14 2.01 -14 1.02 -14 0 C-4.61609407 -2.65775113 -4.61609407 -2.65775113 0 0 Z " fill="#F9EA63" transform="translate(31,33)"/>
<path d="M0 0 C0.33 0.66 0.66 1.32 1 2 C2.76591887 3.00916033 2.76591887 3.00916033 5 4 C5.9075 4.495 6.815 4.99 7.75 5.5 C11.49041844 7.22634697 14.98600245 8.10031089 19 9 C15.24543433 11.50304378 13.45254066 11.45280074 9 11 C3.43298969 8.11340206 3.43298969 8.11340206 2.125 4.75 C2.08375 4.1725 2.0425 3.595 2 3 C1.34 3 0.68 3 0 3 C0 2.01 0 1.02 0 0 Z " fill="#5F6954" transform="translate(13,69)"/>
<path d="M0 0 C2.97 0.495 2.97 0.495 6 1 C6.75 2.625 6.75 2.625 7 5 C5.25 8.25 5.25 8.25 3 11 C2.01 11 1.02 11 0 11 C0 9 0 7 0 5 C-0.66 5 -1.32 5 -2 5 C-2 4.34 -2 3.68 -2 3 C-0.68 3.33 0.64 3.66 2 4 C1.34 2.68 0.68 1.36 0 0 Z " fill="#F6E532" transform="translate(66,16)"/>
<path d="M0 0 C2 3 2 3 3 6 C3.66 6.33 4.32 6.66 5 7 C5 7.99 5 8.98 5 10 C7.31 10 9.62 10 12 10 C12 12.97 12 15.94 12 19 C11.67 19 11.34 19 11 19 C11 17.02 11 15.04 11 13 C9.02 13 7.04 13 5 13 C4.34 11.35 3.68 9.7 3 8 C2.01 8 1.02 8 0 8 C0 5.36 0 2.72 0 0 Z " fill="#E6D94D" transform="translate(14,40)"/>
<path d="M0 0 C2 1 2 1 2.64453125 2.55078125 C3.16224109 6.11785892 2.91977983 9.6078451 2.6875 13.1875 C2.65205078 13.92419922 2.61660156 14.66089844 2.58007812 15.41992188 C2.46503123 17.28642902 2.24097482 19.14554163 2 21 C1.34 21.33 0.68 21.66 0 22 C0 14.74 0 7.48 0 0 Z " fill="#973D05" transform="translate(80,35)"/>
<path d="M0 0 C0.33 0 0.66 0 1 0 C1.66 2.31 2.32 4.62 3 7 C3.33 6.01 3.66 5.02 4 4 C4.66 3.34 5.32 2.68 6 2 C6.66 4.31 7.32 6.62 8 9 C5.23735711 9.59732819 2.83967231 10 0 10 C-2 7 -2 7 -1.6875 3.875 C-1 1 -1 1 0 0 Z " fill="#25AFE6" transform="translate(32,49)"/>
<path d="M0 0 C2.97 0.33 5.94 0.66 9 1 C9.33 2.32 9.66 3.64 10 5 C10.99 5.33 11.98 5.66 13 6 C13 7.65 13 9.3 13 11 C12.34 11 11.68 11 11 11 C11 10.34 11 9.68 11 9 C10.34 9 9.68 9 9 9 C8.67 7.68 8.34 6.36 8 5 C7.13375 4.814375 7.13375 4.814375 6.25 4.625 C3.97664233 3.99351176 2.0746471 3.11141809 0 2 C0 1.34 0 0.68 0 0 Z " fill="#D6970B" transform="translate(79,26)"/>
<path d="M0 0 C1.32 0.33 2.64 0.66 4 1 C4.33 2.98 4.66 4.96 5 7 C5.99 7.33 6.98 7.66 8 8 C6.35 9.32 4.7 10.64 3 12 C3 11.34 3 10.68 3 10 C1.35 9.67 -0.3 9.34 -2 9 C-1.01 8.67 -0.02 8.34 1 8 C0.67 5.36 0.34 2.72 0 0 Z " fill="#14A7DC" transform="translate(53,25)"/>
<path d="M0 0 C3.71599191 -0.20086443 4.77208445 -0.1519437 8 2 C8.47730962 5.72301503 8.1387261 6.79191085 6 10 C4.68 10 3.36 10 2 10 C2.33 7.36 2.66 4.72 3 2 C2.01 1.67 1.02 1.34 0 1 C0 0.67 0 0.34 0 0 Z " fill="#13BAED" transform="translate(56,22)"/>
<path d="M0 0 C0.99 0 1.98 0 3 0 C3 1.98 3 3.96 3 6 C2.01 6.495 2.01 6.495 1 7 C0.67 7.99 0.34 8.98 0 10 C-0.66 9.67 -1.32 9.34 -2 9 C-2.625 6.9375 -2.625 6.9375 -3 5 C-4.65 5 -6.3 5 -8 5 C-8 4.67 -8 4.34 -8 4 C-6.576875 3.566875 -6.576875 3.566875 -5.125 3.125 C-1.94788422 2.23174891 -1.94788422 2.23174891 0 0 Z " fill="#F5E111" transform="translate(60,39)"/>
<path d="M0 0 C0.66 0 1.32 0 2 0 C1.50128936 4.45673159 -0.02004362 6.57687178 -3.0625 9.8125 C-4.16271484 10.99779297 -4.16271484 10.99779297 -5.28515625 12.20703125 C-5.85105469 12.79871094 -6.41695312 13.39039063 -7 14 C-7.625 12.1875 -7.625 12.1875 -8 10 C-7.34 9.01 -6.68 8.02 -6 7 C-5.34 7 -4.68 7 -4 7 C-3.71125 6.401875 -3.4225 5.80375 -3.125 5.1875 C-2 3 -2 3 0 0 Z " fill="#29C7DC" transform="translate(45,30)"/>
<path d="M0 0 C0.33 0 0.66 0 1 0 C1.33 7.92 1.66 15.84 2 24 C2.33 24 2.66 24 3 24 C3.33 26.64 3.66 29.28 4 32 C3.67 31.34 3.34 30.68 3 30 C2.34 30 1.68 30 1 30 C-3.01916725 21.96166551 -0.93724441 8.55055287 0 0 Z " fill="#F2CB46" transform="translate(9,40)"/>
<path d="M0 0 C2.64 0 5.28 0 8 0 C8 0.33 8 0.66 8 1 C5.36 1.66 2.72 2.32 0 3 C0 3.99 0 4.98 0 6 C3.96 6 7.92 6 12 6 C12 6.33 12 6.66 12 7 C6.39 7 0.78 7 -5 7 C-4.34 5.35 -3.68 3.7 -3 2 C-2.01 2 -1.02 2 0 2 C0 1.34 0 0.68 0 0 Z " fill="#F6EE56" transform="translate(48,14)"/>
<path d="M0 0 C5.61 0 11.22 0 17 0 C16.67 1.65 16.34 3.3 16 5 C10.72 5 5.44 5 0 5 C0 4.67 0 4.34 0 4 C0.92683594 3.95101562 1.85367187 3.90203125 2.80859375 3.8515625 C4.00613281 3.77679688 5.20367187 3.70203125 6.4375 3.625 C7.63246094 3.55539063 8.82742187 3.48578125 10.05859375 3.4140625 C11.02925781 3.27742188 11.99992187 3.14078125 13 3 C13.33 2.34 13.66 1.68 14 1 C9.38 1 4.76 1 0 1 C0 0.67 0 0.34 0 0 Z " fill="#1F6C8A" transform="translate(20,41)"/>
<path d="M0 0 C0.8353125 1.0828125 0.8353125 1.0828125 1.6875 2.1875 C3.9729976 5.07086423 3.9729976 5.07086423 6.75 7.6875 C9 10 9 10 9 12 C5.56072421 10.7580393 2.74792181 9.44259716 0 7 C0 6.34 0 5.68 0 5 C-0.66 5 -1.32 5 -2 5 C-1.125 1.125 -1.125 1.125 0 0 Z " fill="#39A3C1" transform="translate(14,64)"/>
<path d="M0 0 C0.33 0 0.66 0 1 0 C1 5.28 1 10.56 1 16 C0.01 16 -0.98 16 -2 16 C-1.67 17.32 -1.34 18.64 -1 20 C-1.99 20 -2.98 20 -4 20 C-4 18.02 -4 16.04 -4 14 C-3.01 13.67 -2.02 13.34 -1 13 C-0.67 8.71 -0.34 4.42 0 0 Z " fill="#FCCF07" transform="translate(73,40)"/>
<path d="M0 0 C0.33 0.99 0.66 1.98 1 3 C-0.109375 4.9375 -0.109375 4.9375 -1.75 7 C-2.28109375 7.680625 -2.8121875 8.36125 -3.359375 9.0625 C-4.83392376 10.80387186 -6.35806315 12.41741026 -8 14 C-8.5 11.5 -8.5 11.5 -8 8 C-5.58622266 5.04629878 -2.86095001 2.51610335 0 0 Z " fill="#24C6EF" transform="translate(43,40)"/>
<path d="M0 0 C0 1.98 0 3.96 0 6 C-0.99 6.33 -1.98 6.66 -3 7 C-3.33 7.66 -3.66 8.32 -4 9 C-4.66 9 -5.32 9 -6 9 C-6 6.36 -6 3.72 -6 1 C-3 0 -3 0 0 0 Z " fill="#D6CA27" transform="translate(71,38)"/>
<path d="M0 0 C2.64 0 5.28 0 8 0 C7.01 1.98 6.02 3.96 5 6 C5.99 6.33 6.98 6.66 8 7 C3.545 7.495 3.545 7.495 -1 8 C-0.67 6.68 -0.34 5.36 0 4 C0.99 4 1.98 4 3 4 C3 3.34 3 2.68 3 2 C2.01 1.34 1.02 0.68 0 0 Z " fill="#31E4F9" transform="translate(32,22)"/>
<path d="M0 0 C0 0.99 0 1.98 0 3 C-0.804375 3.763125 -1.60875 4.52625 -2.4375 5.3125 C-5.31405517 8.32937493 -5.71555086 9.92289563 -6 14 C-8 12 -8 12 -8.625 8.6875 C-8 5 -8 5 -6.2109375 3.4296875 C-4.18062674 2.17419498 -2.14775971 1.04032111 0 0 Z " fill="#2DCDEC" transform="translate(34,45)"/>
<path d="M0 0 C0.66 0.33 1.32 0.66 2 1 C2 2.65 2 4.3 2 6 C1.360625 6.103125 0.72125 6.20625 0.0625 6.3125 C-0.618125 6.539375 -1.29875 6.76625 -2 7 C-2.33 7.99 -2.66 8.98 -3 10 C-6.0625 11.1875 -6.0625 11.1875 -9 12 C-8.60167969 11.55269531 -8.20335937 11.10539062 -7.79296875 10.64453125 C-4.82015875 7.25220061 -2.1717806 3.98159776 0 0 Z " fill="#BE7020" transform="translate(64,27)"/>
<path d="M0 0 C6.27 0.33 12.54 0.66 19 1 C19 1.66 19 2.32 19 3 C16.93906592 3.223293 14.8761161 3.42802887 12.8125 3.625 C11.66394531 3.74101563 10.51539063 3.85703125 9.33203125 3.9765625 C5.93791026 4.00043674 3.96978429 3.59619119 1 2 C0.67 1.34 0.34 0.68 0 0 Z " fill="#6F796D" transform="translate(26,29)"/>
<path d="M0 0 C2.31 0 4.62 0 7 0 C7.33 0.99 7.66 1.98 8 3 C2.93166998 4.26708251 -2.5613033 4.97547868 -7.5 3 C-7.995 2.67 -8.49 2.34 -9 2 C-6.13822943 0.56911472 -4.06624227 1.40008303 -1 2 C-0.67 1.34 -0.34 0.68 0 0 Z " fill="#DEA51B" transform="translate(29,71)"/>
<path d="M0 0 C2 3 2 3 2 5 C1.34 5 0.68 5 0 5 C-0.20625 5.5775 -0.4125 6.155 -0.625 6.75 C-2.53702696 9.87877139 -4.81919401 11.24731098 -8 13 C-8.99 12.67 -9.98 12.34 -11 12 C-8 10 -8 10 -5 10 C-4.731875 9.278125 -4.46375 8.55625 -4.1875 7.8125 C-3.01017502 5.02409874 -1.60854116 2.55904276 0 0 Z " fill="#153C83" transform="translate(76,64)"/>
<path d="M0 0 C-0.6875 2.375 -0.6875 2.375 -2 5 C-4.625 6.3125 -4.625 6.3125 -7 7 C-7.99 6.01 -8.98 5.02 -10 4 C-7.02096266 1.02096266 -4.19714671 0 0 0 Z " fill="#F1DC26" transform="translate(68,47)"/>
<path d="M0 0 C0.99 0.66 1.98 1.32 3 2 C3.1875 4.625 3.1875 4.625 3 7 C0.03 7 -2.94 7 -6 7 C-4.02 4.69 -2.04 2.38 0 0 Z " fill="#50303B" transform="translate(54,39)"/>
<path d="M0 0 C4.95 0.33 9.9 0.66 15 1 C14.67 1.99 14.34 2.98 14 4 C8.72 3.67 3.44 3.34 -2 3 C-1.34 2.67 -0.68 2.34 0 2 C0 1.34 0 0.68 0 0 Z " fill="#E2D44C" transform="translate(19,41)"/>
<path d="M0 0 C0.99 0 1.98 0 3 0 C3.33 1.98 3.66 3.96 4 6 C3.34 6 2.68 6 2 6 C1.67 9.3 1.34 12.6 1 16 C0.67 16 0.34 16 0 16 C0 10.72 0 5.44 0 0 Z " fill="#FAD53A" transform="translate(14,48)"/>
<path d="M0 0 C0.33 0.66 0.66 1.32 1 2 C1.99 2 2.98 2 4 2 C4 2.66 4 3.32 4 4 C5.32 4.33 6.64 4.66 8 5 C7.01 5.33 6.02 5.66 5 6 C4.67 6.66 4.34 7.32 4 8 C2.68 8 1.36 8 0 8 C0 5.36 0 2.72 0 0 Z " fill="#F6ED6F" transform="translate(15,35)"/>
<path d="M0 0 C1.09658936 3.28976808 0.79953138 4.71303767 0 8 C-1.65 8 -3.3 8 -5 8 C-4.45773019 4.20411134 -2.79872437 2.52788007 0 0 Z " fill="#9B3807" transform="translate(79,72)"/>
<path d="M0 0 C3 1.8125 3 1.8125 6 4 C6 4.99 6 5.98 6 7 C4.02 7.33 2.04 7.66 0 8 C-1.09658936 4.71023192 -0.79953138 3.28696233 0 0 Z " fill="#E1AE0A" transform="translate(66,28)"/>
<path d="M0 0 C0.33 0.66 0.66 1.32 1 2 C3.52733235 2.65555119 3.52733235 2.65555119 6 3 C6 4.32 6 5.64 6 7 C4.02 7 2.04 7 0 7 C0 4.69 0 2.38 0 0 Z " fill="#F1BC1C" transform="translate(24,85)"/>
<path d="M0 0 C0.66 0 1.32 0 2 0 C1.38722388 2.96175123 0.74627478 4.38058783 -1 7 C-1.39013716 8.9896995 -1.73202649 10.99019869 -2 13 C-2.66 12.34 -3.32 11.68 -4 11 C-3.74964126 6.49354269 -3.25629805 3.25629805 0 0 Z " fill="#6FF0EC" transform="translate(16,16)"/>
<path d="M0 0 C3.63 0.33 7.26 0.66 11 1 C11 1.66 11 2.32 11 3 C6.71 3 2.42 3 -2 3 C-1.34 2.01 -0.68 1.02 0 0 Z " fill="#2B2339" transform="translate(46,47)"/>
<path d="M0 0 C0 1.65 0 3.3 0 5 C-2.97 5 -5.94 5 -9 5 C-7.53462274 2.06924548 -3.34169906 0 0 0 Z " fill="#D08805" transform="translate(92,87)"/>
<path d="M0 0 C0.99 0.33 1.98 0.66 3 1 C2.34 1 1.68 1 1 1 C1 3.97 1 6.94 1 10 C-0.65 10.33 -2.3 10.66 -4 11 C-4 10.01 -4 9.02 -4 8 C-2.68 8 -1.36 8 0 8 C0 5.36 0 2.72 0 0 Z " fill="#141646" transform="translate(64,38)"/>
<path d="M0 0 C1.32 0.33 2.64 0.66 4 1 C3.67 1.66 3.34 2.32 3 3 C2.34 3 1.68 3 1 3 C0.67 3.66 0.34 4.32 0 5 C-0.99 4.67 -1.98 4.34 -3 4 C-3 4.66 -3 5.32 -3 6 C-4.32 6.33 -5.64 6.66 -7 7 C-5.1875 4.5 -5.1875 4.5 -3 2 C-2.01 2 -1.02 2 0 2 C0 1.34 0 0.68 0 0 Z " fill="#EEF6B2" transform="translate(23,14)"/>
<path d="M0 0 C0.66 0 1.32 0 2 0 C3.625 2.5 3.625 2.5 5 5 C1.535 6.485 1.535 6.485 -2 8 C-2.33 6.68 -2.66 5.36 -3 4 C-1.68 3.67 -0.36 3.34 1 3 C0.67 2.01 0.34 1.02 0 0 Z " fill="#EED316" transform="translate(25,61)"/>
<path d="M0 0 C0 0.99 0 1.98 0 3 C-0.66 3.66 -1.32 4.32 -2 5 C-1.73323796 6.98491642 -1.73323796 6.98491642 -1 9 C-0.67 9.99 -0.34 10.98 0 12 C-1.32 11.34 -2.64 10.68 -4 10 C-4.25 7.25 -4.25 7.25 -4 4 C-2 1.625 -2 1.625 0 0 Z " fill="#0D2658" transform="translate(42,45)"/>
<path d="M0 0 C0.66 0 1.32 0 2 0 C1.25 4.75 1.25 4.75 -1 7 C-1.99 7 -2.98 7 -4 7 C-2.79618552 4.50638429 -1.54571278 2.31856917 0 0 Z " fill="#31CFE6" transform="translate(45,30)"/>
<path d="M0 0 C2.64 0.33 5.28 0.66 8 1 C8.33 1.99 8.66 2.98 9 4 C6.03 3.67 3.06 3.34 0 3 C0 2.01 0 1.02 0 0 Z " fill="#E9B017" transform="translate(79,23)"/>
<path d="M0 0 C0.66 0.33 1.32 0.66 2 1 C0.1875 3.5 0.1875 3.5 -2 6 C-2.99 6 -3.98 6 -5 6 C-4.75 4.125 -4.75 4.125 -4 2 C-2.0625 0.6875 -2.0625 0.6875 0 0 Z " fill="#1CB3E0" transform="translate(44,47)"/>
<path d="M0 0 C0.33 0.66 0.66 1.32 1 2 C0.0625 4.625 0.0625 4.625 -1 7 C-1.66 7 -2.32 7 -3 7 C-3 6.34 -3 5.68 -3 5 C-4.65 5 -6.3 5 -8 5 C-8 4.67 -8 4.34 -8 4 C-6.576875 3.566875 -6.576875 3.566875 -5.125 3.125 C-1.94788422 2.23174891 -1.94788422 2.23174891 0 0 Z " fill="#F6B80F" transform="translate(60,39)"/>
<path d="M0 0 C0 1.98 0 3.96 0 6 C-2 4.625 -2 4.625 -4 3 C-4 2.34 -4 1.68 -4 1 C-5.32 0.67 -6.64 0.34 -8 0 C-4.71303767 -0.79953138 -3.28976808 -1.09658936 0 0 Z " fill="#09C4F9" transform="translate(59,24)"/>
<path d="M0 0 C2 3 2 3 3 6 C3.66 6.33 4.32 6.66 5 7 C4.67 7.99 4.34 8.98 4 10 C3.67 9.34 3.34 8.68 3 8 C2.01 8 1.02 8 0 8 C0 5.36 0 2.72 0 0 Z " fill="#FBE44F" transform="translate(14,40)"/>
<path d="M0 0 C1.5 1.125 1.5 1.125 3 3 C3.1875 6.1875 3.1875 6.1875 3 9 C0.11749016 6.61879622 -0.61038985 4.70129644 -1 1 C-0.67 0.67 -0.34 0.34 0 0 Z " fill="#2F93C1" transform="translate(76,20)"/>
<path d="M0 0 C1.32 0 2.64 0 4 0 C3.67 1.32 3.34 2.64 3 4 C1.35 4.33 -0.3 4.66 -2 5 C-1.125 1.125 -1.125 1.125 0 0 Z " fill="#22DBFC" transform="translate(39,23)"/>
<path d="M0 0 C0.33 0.66 0.66 1.32 1 2 C1.639375 2.309375 2.27875 2.61875 2.9375 2.9375 C5 4 5 4 7 7 C6.01 7.33 5.02 7.66 4 8 C3.34 6.35 2.68 4.7 2 3 C1.34 3 0.68 3 0 3 C0 2.01 0 1.02 0 0 Z " fill="#868E62" transform="translate(13,69)"/>
<path d="M0 0 C0.33 1.32 0.66 2.64 1 4 C-1.375 5.5625 -1.375 5.5625 -4 7 C-4.66 6.67 -5.32 6.34 -6 6 C-4.02 4.02 -2.04 2.04 0 0 Z " fill="#A24D1D" transform="translate(61,32)"/>
<path d="M0 0 C0.66 0.66 1.32 1.32 2 2 C1.67 2.66 1.34 3.32 1 4 C1.66 4 2.32 4 3 4 C3 4.66 3 5.32 3 6 C1.68 6.33 0.36 6.66 -1 7 C-1.66 6.01 -2.32 5.02 -3 4 C-2.01 4 -1.02 4 0 4 C0 2.68 0 1.36 0 0 Z " fill="#E7E356" transform="translate(63,17)"/>
<path d="M0 0 C2.31 0.33 4.62 0.66 7 1 C7 2.66666667 7 4.33333333 7 6 C5.68 5.34 4.36 4.68 3 4 C3 3.34 3 2.68 3 2 C2.01 1.34 1.02 0.68 0 0 Z " fill="#F8E84B" transform="translate(61,14)"/>
<path d="M0 0 C0.33 0 0.66 0 1 0 C1 2.64 1 5.28 1 8 C-0.65 8.33 -2.3 8.66 -4 9 C-3.34 7.68 -2.68 6.36 -2 5 C-1.34 5 -0.68 5 0 5 C0 3.35 0 1.7 0 0 Z " fill="#894337" transform="translate(64,57)"/>
<path d="M0 0 C1.20628008 2.33214148 2.1654738 4.49642139 3 7 C1.0625 6.6875 1.0625 6.6875 -1 6 C-1.33 5.01 -1.66 4.02 -2 3 C-1.34 2.01 -0.68 1.02 0 0 Z " fill="#139ED7" transform="translate(37,51)"/>
</svg>
